<svg width="756" height="550" viewBox="0 0 756 550" fill="none" xmlns="http://www.w3.org/2000/svg">
<g clip-path="url(#clip0_304_4344)">
<path d="M731.4 259.4C760.4 132.3 724.6 52.2 619.1 12.2C513.6 -27.8 408.1 43.7 357.2 39C283.5 32.3 152.5 -9.90002 72.5003 76.1C-23.2997 179.2 10.0003 395.6 227.9 493.7C412.9 577 678.8 489.6 731.4 259.4Z" fill="#02396B"/>
<path d="M641.4 399.6L644.7 399.9C644.3 404.8 643.9 410 643.5 415.3V416C642.1 433.5 640.8 452.8 639.6 471.7L636.1 474.4C637.4 452.6 639 431.5 640 417.3C640.1 416.6 640.1 415.9 640.2 415.3C640.9 405.7 641.4 399.8 641.4 399.6Z" fill="#022E57"/>
<path d="M62.6008 411.8C62.6008 407.8 62.6008 403.9 62.5008 399.9V397.7C62.5008 386.9 62.4008 376.1 62.3008 365.7V364.2C62.2008 352.2 62.2008 340.7 62.1008 330.4C62.0008 323.5 62.0008 317.1 61.9008 311.5H56.3008C56.4008 317.6 56.5008 323.9 56.5008 330.3C56.6008 341.6 56.7008 353.4 56.8008 365.3V365.6C56.8008 376.3 56.9008 387.1 56.9008 397.8C56.9839 398.363 57.0174 398.931 57.0008 399.5V409.1L59.2008 411.8L62.6008 415.7V411.8Z" fill="#033B70"/>
<path d="M461.2 303V315.4L454.8 333.1L450.2 345.9L445.8 358.1L445.1 359.8L444.8 360.7L444.3 362.1L442.7 366.4L442.1 368.1L430.8 399.5L426.4 411.7H59.2L57 409.1C54.3 405.9 51.8 402.7 49.3 399.5L49.1 399.3L48.1 397.9C41.2 389 34.8 379.8 29 370.6L54.9 365.6L56.8 365.3L62.3 364.2L89.4 359.1L95 358L98.5 357.4L128.9 352.8L130.8 352.5L168.6 346.8L191.7 343.4L197.7 342.5L215.8 339.8H216.2L232.9 337.3L244.9 335.5L252.6 334.4L300.7 327.1L317.4 324.6L380.4 315.2L381.6 315L384.5 314.6L390.3 313.7L397.4 312.6L402.8 311.8L410.1 310.7L417.8 309.6L452.7 304.3L461.2 303Z" fill="#E3B58A"/>
<path d="M461.2 303L458.6 309.7L446.2 342.6L445.6 344.1L438.6 362.8V363L438.1 364.2L437.9 364.8L437.7 365.4L424.8 399.5H49.2996L49.0996 399.3L48.0996 397.9C41.1996 389 34.7996 379.8 28.9996 370.6L25.4996 364.8L24.8996 363.8C23.2996 361.2 21.7996 358.6 20.3996 355.9C17.4996 350.8 14.7996 345.6 12.1996 340.4L10.1996 336.3C9.97429 335.715 9.70693 335.147 9.39961 334.6L7.59961 330.5L10.6996 328.9L11.9996 328.2L15.5996 326.3L42.9996 311.9L59.8996 303H461.2Z" fill="#F5CCA4"/>
<path d="M220.4 334.9C221.7 336.4 215.5 340 208.4 345.4C203.8 348.9 198.5 352.8 193.6 356.2C186.3 361.2 182.1 365.2 178.2 365.5C174.3 365.8 169.3 365.8 157.6 365.8C117 366 31 365.5 31 365.5L50.6 330.3C50.6 330.3 153.7 331.1 199.2 333.1C211.8 333.6 219.2 333.4 220.4 334.9Z" fill="#4F4D63"/>
<path d="M177.099 360L88.6993 359.1C88.558 359.076 88.43 359.003 88.3383 358.892C88.2466 358.782 88.1973 358.643 88.1993 358.5C88.1993 358.367 88.252 358.24 88.3457 358.146C88.4395 358.053 88.5667 358 88.6993 358L177.099 358.9C177.258 358.9 177.411 358.963 177.524 359.076C177.636 359.188 177.699 359.341 177.699 359.5C177.675 359.641 177.602 359.769 177.492 359.861C177.382 359.953 177.243 360.002 177.099 360Z" fill="#3C3A4F"/>
<path d="M209.9 338.3L99.5001 335.7C99.3588 335.676 99.2308 335.603 99.1391 335.492C99.0474 335.382 98.9981 335.243 99.0001 335.1C99.0001 334.967 99.0527 334.84 99.1465 334.746C99.2403 334.653 99.3675 334.6 99.5001 334.6L209.9 337.2C210.043 337.198 210.183 337.247 210.293 337.339C210.403 337.431 210.476 337.559 210.5 337.7C210.5 337.859 210.437 338.012 210.324 338.124C210.212 338.237 210.059 338.3 209.9 338.3Z" fill="#3C3A4F"/>
<path d="M216.699 315.1C216.799 314.3 216.899 311.2 216.899 311.2C216.899 311.2 140.599 319.9 139.299 319.8C137.999 319.7 137.899 324.7 138.899 325.4C139.899 326.1 202.099 329 205.099 328.1C208.099 327.2 216.399 317.2 216.699 315.1Z" fill="#7C86A6"/>
<path d="M216.701 310.8C214.801 309.7 154.201 309.7 152.701 309.6C151.201 309.5 138.601 318.7 138.401 320.6C138.201 322.5 202.101 324.8 205.101 323.9C208.101 323 218.501 311.9 216.701 310.8Z" fill="#939CBB"/>
<path d="M188.401 261.8C190.701 265.5 193.901 313.8 191.701 315.9C189.501 318 168.501 316.9 169.001 315.6C169.501 314.3 172.601 263.6 174.101 260.6C175.601 257.6 188.401 261.8 188.401 261.8Z" fill="#7C86A6"/>
<path d="M283.899 183.7C282.999 209.7 279.199 263.7 278.899 268.1C278.199 280.4 277.699 286.7 276.599 288.3C274.499 291.5 265.499 289.8 252.399 289.5C200.999 288.6 79.4991 283.2 77.3991 280.5C75.2991 277.8 78.4991 206 82.0991 169.9C83.1991 159 83.1991 150.9 84.4991 149.6C87.6991 146.2 100.899 147.6 121.099 147.2C133.799 146.9 148.899 146.8 164.599 146.8C186.099 146.9 208.799 147.2 228.799 147.8C237.999 148.1 246.499 148.4 254.099 148.9C271.199 149.8 281.499 149.5 283.299 151.6C285.099 153.7 284.499 166.9 283.899 183.7Z" fill="#939CBB"/>
<path d="M276.5 158.3C278.1 159.7 277.8 167.2 277 184.1C276.2 204 274.3 228.3 272.9 250.2C271.9 265.9 271.3 276.7 269.7 279.3C268.1 281.9 252.8 280.3 231.8 279.6C178.2 277.9 85.8004 273.2 84.0004 270.9C82.2004 268.6 84.5004 230 86.7004 197.5C88.3004 174.7 88.1004 156.1 90.7004 154C93.3004 151.9 109.7 152.8 134.8 152.9C169 153.1 215.5 153.9 246.1 155C264.3 155.6 274.1 156 276.5 158.3Z" fill="white"/>
<path d="M146.4 230.4C145.7 231.6 145 242 145.8 242.9C146.6 243.8 249.3 247.9 250.3 247C251.3 246.1 251.6 235.2 250.5 234C249.4 232.8 147.2 229.2 146.4 230.4Z" fill="#F0F2FC"/>
<path d="M146.1 248.2C145.4 249.1 144.8 250.1 145.7 250.7C146.6 251.3 249.2 254.9 250.1 254.2C250.356 254.071 250.571 253.876 250.726 253.634C250.88 253.393 250.966 253.115 250.977 252.83C250.987 252.544 250.92 252.26 250.784 252.009C250.647 251.757 250.446 251.547 250.2 251.4C249.1 250.6 146.8 247.4 146.1 248.2Z" fill="#F0F2FC"/>
<path d="M249.901 261C250.701 260.1 251.201 259.1 250.401 258.5C249.601 257.9 146.801 254.3 145.901 255C145.668 255.148 145.475 255.35 145.338 255.59C145.201 255.829 145.124 256.098 145.114 256.374C145.105 256.649 145.162 256.923 145.281 257.172C145.401 257.42 145.579 257.636 145.801 257.8C146.901 258.6 249.201 261.9 249.901 261Z" fill="#F0F2FC"/>
<path d="M244.5 164C243.9 165.2 243.4 176.7 244.3 177.6C245.2 178.5 268.6 178.6 269.5 177.6C270.4 176.6 270.6 165.8 269.5 164.7C268.4 163.6 245.2 162.8 244.5 164Z" fill="#F0F2FC"/>
<path d="M209.899 162.4C209.199 163.6 209.399 175.2 210.299 176C211.199 176.8 234.599 177 235.499 176C236.399 175 236.599 164.2 235.499 163.1C234.399 162 210.499 161.2 209.899 162.4Z" fill="#F0F2FC"/>
<path d="M201.501 161.6C202.101 162.8 201.901 174.4 201.001 175.3C200.101 176.2 176.701 176.2 175.801 175.3C174.901 174.4 173.901 162.6 175.001 161.5C176.101 160.4 200.801 160.4 201.501 161.6Z" fill="#F0F2FC"/>
<path d="M142.3 161.8C141.6 163 141.1 173.4 141.9 174.3C142.7 175.2 166.2 175.3 167.2 174.3C168.2 173.3 168.3 162.5 167.2 161.4C166.1 160.3 143 160.5 142.3 161.8Z" fill="#F0F2FC"/>
<path d="M94.4001 161.3C93.3001 163.1 91.4001 256.2 92.7001 257.5C94.0001 258.8 129.4 258.9 130.8 257.5C132.2 256.1 133.5 162.4 131.8 160.7C130.1 159 95.4001 159.4 94.4001 161.3Z" fill="#F0F2FC"/>
<path d="M263.7 283.4L258.7 283C256.6 282.8 256.4 286.2 258.6 286.3L263.5 286.7C263.745 286.775 264.005 286.793 264.259 286.754C264.513 286.714 264.754 286.617 264.966 286.47C265.177 286.324 265.352 286.131 265.478 285.907C265.604 285.683 265.677 285.433 265.693 285.177C265.708 284.92 265.665 284.664 265.567 284.426C265.469 284.188 265.319 283.976 265.127 283.805C264.935 283.634 264.707 283.509 264.46 283.439C264.213 283.368 263.953 283.355 263.7 283.4Z" fill="#7C86A6"/>
<path d="M253.599 282.9C253.268 282.595 252.829 282.435 252.379 282.454C251.929 282.472 251.505 282.669 251.199 283H251.099C250.816 283.335 250.673 283.766 250.701 284.204C250.728 284.642 250.923 285.052 251.246 285.349C251.569 285.646 251.994 285.807 252.433 285.798C252.871 285.788 253.289 285.61 253.599 285.3H253.699C254.004 284.968 254.165 284.529 254.146 284.079C254.127 283.629 253.931 283.205 253.599 282.9Z" fill="#7C86A6"/>
<path d="M247.401 285.2H247.501C248.001 284.6 248.201 283.4 247.401 282.9C247.104 282.674 246.75 282.536 246.379 282.501C246.008 282.465 245.634 282.534 245.301 282.7C245.02 282.896 244.81 283.176 244.701 283.5C244.53 283.822 244.467 284.189 244.521 284.549C244.575 284.91 244.743 285.243 245.001 285.5C245.158 285.664 245.348 285.793 245.559 285.878C245.77 285.963 245.996 286.002 246.223 285.992C246.45 285.983 246.673 285.925 246.876 285.823C247.079 285.721 247.258 285.577 247.401 285.4V285.2Z" fill="#7C86A6"/>
<path d="M188.999 205V205.6L188.299 215.2C188.299 215.2 183.299 219.7 168.899 220.5C166.329 220.66 163.749 220.56 161.199 220.2V214.4L164.499 208.1L154.099 212.9L150.499 214.6L147.799 215.8L146.199 214.8V205H188.999Z" fill="#DDE0F0"/>
<path d="M189.001 205V205.6C188.401 211 179.101 215.2 167.801 215.2C165.625 215.194 163.452 215.027 161.301 214.7V214.4L164.601 208.1L154.201 212.9C151.976 212.137 149.957 210.87 148.301 209.2C147.7 208.672 147.213 208.027 146.869 207.305C146.526 206.583 146.332 205.799 146.301 205C146.301 199.4 155.901 194.8 167.701 194.8C179.501 194.8 189.001 199.4 189.001 205Z" fill="#F0F2FC"/>
<path d="M161.301 214.4L164.601 208.1C163.301 210.7 161.801 213.6 161.301 214.4Z" fill="#DDE0F0"/>
<path d="M166.001 205C165.701 205.8 165.101 206.9 164.601 208.1L154.201 212.9L150.601 214.6L148.301 213.4V209.2L161.001 205C164.001 204 166.301 203.4 166.401 203.6C166.501 203.8 166.301 204.2 166.001 205Z" fill="#DDE0F0"/>
<path d="M249.8 203.6V204.3L249.1 213.8C249.1 213.8 246.3 216.4 239 218L234.2 213.9L233.9 213.6H233.8L225.4 206.9L215 211.6L211.5 213.2L208.6 214.5L207.1 213.4V203.6H249.8Z" fill="#DDE0F0"/>
<path d="M249.8 203.6V204.3C249.4 207.6 245.7 210.5 240.2 212.2L239.5 212.4C237.635 212.929 235.728 213.297 233.8 213.5L225.4 206.8L215 211.6C212.764 210.797 210.721 209.537 209 207.9C207.835 206.765 207.154 205.225 207.1 203.6C207.1 198 216.6 193.5 228.4 193.5C240.2 193.5 249.8 198 249.8 203.6Z" fill="#F0F2FC"/>
<path d="M240.1 212.2L239.4 212.4L234.1 213.9L233.8 213.6H233.7L225.3 206.9L215 211.6L211.5 213.2L209 212.1V207.9C209 207.9 216.4 205.3 221.8 203.6C224.8 202.7 227.1 202.1 227.2 202.3L228.8 203.6C232.2 206.4 240.1 212.2 240.1 212.2Z" fill="#DDE0F0"/>
<path d="M223.401 123.3L221.701 153.1C220.901 167.9 198.501 177.7 192.301 180.1C191.8 180.293 191.264 180.376 190.729 180.341C190.193 180.307 189.672 180.156 189.201 179.9C185.851 178.188 182.641 176.215 179.601 174C171.601 168.4 162.401 159.7 163.001 149.9L164.601 120C164.665 119.216 164.999 118.479 165.546 117.913C166.093 117.348 166.819 116.99 167.601 116.9C173.801 116.3 184.601 112.9 192.101 107.9C192.896 107.366 193.844 107.107 194.801 107.161C195.757 107.215 196.67 107.58 197.401 108.2C201.573 111.571 206.181 114.362 211.101 116.5C214.219 117.938 217.467 119.076 220.801 119.9C221.567 120.065 222.25 120.498 222.727 121.121C223.203 121.744 223.442 122.517 223.401 123.3Z" fill="#FF7F00"/>
<path d="M211.001 120.2C209.601 145.4 196.601 166.3 179.601 174C171.601 168.4 162.401 159.7 163.001 149.9L164.601 120C164.665 119.216 164.999 118.479 165.546 117.913C166.093 117.348 166.819 116.99 167.601 116.9C173.801 116.3 184.601 112.9 192.101 107.9C192.896 107.366 193.844 107.107 194.801 107.161C195.757 107.215 196.67 107.58 197.401 108.2C201.573 111.571 206.181 114.362 211.101 116.5C211.101 117.7 211.001 118.9 211.001 120.2Z" fill="#FF9E19"/>
<path d="M223.401 123.3C223.422 122.521 223.176 121.758 222.703 121.14C222.23 120.521 221.558 120.083 220.801 119.9C212.279 117.65 204.313 113.667 197.401 108.2C196.67 107.58 195.758 107.215 194.801 107.161C193.844 107.107 192.896 107.366 192.101 107.9C184.601 112.9 173.801 116.3 167.601 116.9C166.819 116.99 166.093 117.348 165.546 117.913C164.999 118.479 164.665 119.216 164.601 120L163.001 149.9C162.201 164.6 183.301 176.8 189.201 179.9C189.672 180.156 190.193 180.307 190.729 180.341C191.264 180.376 191.8 180.293 192.301 180.1C198.501 177.7 220.901 167.9 221.701 153.1L223.401 123.3Z" stroke="#FF7F00" stroke-width="5.37" stroke-linecap="round" stroke-linejoin="round"/>
<path d="M192.801 162.8C203.294 162.8 211.801 154.293 211.801 143.8C211.801 133.307 203.294 124.8 192.801 124.8C182.307 124.8 173.801 133.307 173.801 143.8C173.801 154.293 182.307 162.8 192.801 162.8Z" fill="white"/>
<path d="M180.699 143L189.299 152.6L209.499 134.5" stroke="#011C35" stroke-width="5.37" stroke-linecap="round" stroke-linejoin="round"/>
<path d="M247.499 336.1C245.199 334.9 234.999 334 228.499 340.3C223.699 344.9 221.099 351.1 226.799 354.6C232.499 358.1 242.599 352 246.399 348.8C250.199 345.6 252.899 339.1 247.499 336.1Z" fill="#4F4D63"/>
<path d="M240.8 339.7L240.4 339.5C240.314 339.378 240.277 339.229 240.296 339.081C240.314 338.933 240.387 338.797 240.5 338.7C241.487 337.914 242.561 337.243 243.7 336.7C244.631 336.318 245.605 336.05 246.6 335.9C246.743 335.898 246.882 335.947 246.993 336.039C247.103 336.131 247.176 336.259 247.2 336.4C247.215 336.473 247.213 336.549 247.195 336.622C247.177 336.695 247.142 336.763 247.094 336.82C247.046 336.878 246.986 336.924 246.918 336.955C246.849 336.986 246.775 337.002 246.7 337C245.844 337.144 245.006 337.379 244.2 337.7C243.124 338.205 242.117 338.844 241.2 339.6L240.8 339.7Z" fill="#382732"/>
<path d="M228.6 530.8C222.9 528.5 217.2 526.1 211.6 523.6C201.2 518.8 191.1 513.8 181.3 508.6C181.6 502.3 178.6 497.7 174.8 493.5L171.6 490.2L168.5 487.2C166.749 485.459 165.175 483.55 163.8 481.5C163.509 481.151 163.242 480.784 163 480.4C162.386 479.341 161.851 478.238 161.4 477.1C155.5 477.3 151.3 477.5 147.6 477.8L144.5 478L133.4 479.1L125.2 473.2L123.2 471.6L121.6 470.4C105.645 458.363 90.6037 445.16 76.5996 430.9L73.3996 427.5C69.6996 423.6 66.0996 419.7 62.5996 415.7L59.1996 411.8L56.9996 409.1C54.2996 405.9 51.7996 402.7 49.2996 399.5L49.0996 399.3L48.0996 397.9H62.4996L101.8 397.2C102.1 395.6 102.3 394.1 102.5 392.5C102.7 390.9 103.7 392.1 103.6 392.8L103 397H105.3C106 396.9 106 398.1 105.3 398.1H102.8C102.8 398.3 102.7 398.8 102.6 399.5C102.5 400.2 102.2 402.1 102 403.7C101.6 407.1 101.2 410.8 101.4 411.8C101.6 412.8 101.4 412 101.5 412C122.1 413.7 129.6 414.8 148.8 417.3C163.9 419.3 178.3 421.8 193.1 425.2C200.1 426.8 206.9 428.6 210.1 435.3C211.749 439.108 212.924 443.105 213.6 447.2C217.8 467.933 221.633 488.7 225.1 509.5C226.3 516.6 227.5 523.7 228.6 530.8Z" fill="#000D1A"/>
<path d="M45.9 260.6C42.9451 261.059 40.0784 261.97 37.4 263.3C37 262.9 36.4 263.3 36.4 263.8L35.3 264.4C29.5332 267.985 24.5639 272.716 20.7 278.3C13.4 288.2 7.1 299.1 1.2 309.9L0 312.1C2.3 318.3 4.8 324.4 7.6 330.5L9.4 334.6C9.70732 335.147 9.97468 335.715 10.2 336.3L12.2 340.4C14.8 345.6 17.5 350.8 20.4 355.9C20.9 355.1 21.5 354.4 22.1 353.6C24.8 350.1 27.5 346.6 29.9 342.9C34.9456 335.095 38.8517 326.609 41.5 317.7C42.1 315.8 42.5 313.9 43 311.9C46.5454 295.902 44.7542 279.184 37.9 264.3C40.4951 262.959 43.3036 262.079 46.2 261.7C46.9 261.6 46.6 260.5 45.9 260.6ZM30.7 363.1L24.9 363.8L25.5 364.8L30.7 364.2C31.4 364.1 31.4 363 30.7 363.1Z" fill="#0085FF"/>
<path d="M140.601 203.8L137.001 199.1L134.501 195.9C134.401 193.6 134.201 191.4 134.101 189.1C134.001 186.8 133.801 185.9 133.701 184.3C133.601 182.7 133.601 182.8 133.501 182.1C133.405 180.108 133.103 178.13 132.601 176.2C132.401 175.7 132.301 175.2 132.101 174.7C131.212 172.287 129.419 170.314 127.101 169.2L125.401 168.5L124.101 168.1L120.801 167.4H119.401C117.378 167.148 115.339 167.048 113.301 167.1C106.678 166.427 99.9912 167.353 93.8008 169.8C91.8018 170.599 89.8915 171.605 88.1008 172.8C85.5735 174.325 83.2826 176.212 81.3008 178.4C78.1539 181.817 75.8582 185.928 74.6008 190.4C73.4329 194.264 73.1053 198.334 73.6399 202.336C74.1746 206.337 75.5592 210.178 77.7008 213.6L78.8008 215.2C80.4008 217.6 82.2008 219.8 84.0008 222.1C84.3981 222.542 84.7656 223.009 85.1008 223.5L85.5008 223.9L86.7008 225.4L92.3008 232.6C94.1008 234.9 95.9008 237.1 97.6008 239.4C97.6943 239.492 97.8199 239.543 97.9508 239.543C98.0817 239.543 98.2074 239.492 98.3008 239.4C103.652 239.299 108.994 238.898 114.301 238.2H114.901C119.401 237.6 124.101 237 128.301 235.5C129.771 234.98 131.057 234.041 132.001 232.8C134.301 229.9 134.701 225.6 134.901 221.8C134.901 221.3 135.001 220.8 135.001 220.2C135.001 219 135.101 217.8 135.101 216.5V215.1V209L136.801 208.5C138.101 208.1 141.401 207.5 141.501 205.6C141.601 203.7 141.001 204.3 140.601 203.8Z" fill="#F08A71"/>
<path d="M132.401 214.7L128.501 214.9C127.301 214.9 126.501 214.9 126.901 216.2C127.301 217.5 130.601 219.4 132.301 219.8H135.001C135.001 218.6 135.101 217.4 135.101 216.1V214.7H132.401Z" fill="#F7F4F0"/>
<path d="M132.701 192.9C132.507 192.51 132.191 192.194 131.801 192C130.201 191.3 129.601 193.7 129.801 194.9C130.001 196.1 130.701 197.1 131.801 196.7C132.901 196.3 133.301 194.2 132.701 192.9Z" fill="#382732"/>
<path d="M134.1 189.1C131.847 189.4 129.571 189.5 127.3 189.4H127.2C126.842 189.423 126.487 189.317 126.2 189.1C125.9 188.9 125.9 188.7 125.9 188.3C126.2 186 133.7 184.4 133.7 184.3C133.8 185.9 133.9 187.5 134.1 189.1Z" fill="#B35E2B"/>
<path d="M85.3 218.3L76 245.8L88.6 263.2L107.5 259.4L116.5 233.7L85.3 218.3Z" fill="#F08A71"/>
<path d="M136.299 206.4C135.6 206.284 134.884 206.318 134.199 206.5C134.094 206.57 134.013 206.671 133.968 206.789C133.924 206.907 133.918 207.037 133.951 207.159C133.984 207.281 134.055 207.389 134.153 207.468C134.252 207.547 134.373 207.594 134.499 207.6C135.082 207.419 135.7 207.384 136.299 207.5C136.999 207.6 136.999 206.4 136.299 206.4Z" fill="#D4654A"/>
<path d="M149.199 285.8C147.799 291.5 145.299 297.4 143.999 303C143.885 303.287 143.817 303.591 143.799 303.9C142.899 308 141.799 312.8 140.499 318.1C140.399 318.6 140.199 319.2 140.099 319.7C140.026 320.182 139.892 320.652 139.699 321.1C139.399 322.5 139.099 323.8 138.699 325.2C138.299 326.6 137.599 329.3 137.099 331.4L135.899 335.4L135.599 336.5C134.099 341.8 132.499 347.2 130.799 352.5C130.487 353.386 130.22 354.287 129.999 355.2C129.573 356.245 129.206 357.314 128.899 358.4C128.722 358.749 128.588 359.119 128.499 359.5C127.699 361.7 126.999 363.8 126.199 365.9C122.199 376.6 117.899 386.3 113.399 393.1C111.885 395.43 110.106 397.578 108.099 399.5C106.281 401.189 104.226 402.604 101.999 403.7L100.799 404.3C89.9992 408.9 79.8992 402.2 69.2992 400.7C67.0992 400.3 64.7992 400.1 62.4992 399.9L56.9992 399.5H55.9992L49.0992 399.3L48.0992 397.9C41.1992 389 34.7992 379.8 28.9992 370.6L25.4992 364.8L24.8992 363.8C23.2992 361.2 21.7992 358.6 20.3992 355.9C17.4992 350.8 14.7992 345.6 12.1992 340.4C12.6992 338.3 13.1992 336.1 13.7992 334L15.5992 326.3L20.0992 307.2C21.4992 301.5 22.6992 295.8 24.0992 290L25.8992 283.1L26.2992 281.5C28.0992 275.2 30.5992 269 35.2992 264.4L35.7992 263.9C41.5992 258.5 49.2992 256 56.5992 253.1C60.5072 251.434 64.0943 249.099 67.1992 246.2C69.3992 244.3 72.5992 239.4 75.6992 239.5H84.2992L92.2992 239.8C99.5992 240.4 106.699 242.1 111.799 246.9C113.017 247.957 114.092 249.167 114.999 250.5C116.299 252.5 122.399 254.9 129.099 257.9C132.799 259.6 136.699 261.4 140.099 263.4C143.499 265.4 147.999 268.8 149.199 271.8C149.779 273.165 150.117 274.62 150.199 276.1C150.453 279.367 150.114 282.653 149.199 285.8Z" fill="#0085FF"/>
<path d="M132.101 169.6C131.901 161.9 126.601 155.6 120.301 151.6C118.101 150.2 114.201 148.4 112.101 151C111.811 151.325 111.591 151.705 111.454 152.118C111.316 152.53 111.264 152.967 111.301 153.4C109.638 153.115 107.933 153.182 106.297 153.595C104.661 154.009 103.129 154.76 101.801 155.8C101.319 156.182 100.883 156.618 100.501 157.1C92.7008 156.4 84.8008 157.8 78.1008 162.1C71.9137 165.844 67.3485 171.764 65.3008 178.7C62.6008 185.5 63.9008 193.2 66.7008 199.7C70.4008 208.4 81.9008 223.7 81.9008 223.7C82.2916 224.147 82.6587 224.615 83.0008 225.1C83.9008 224.9 102.501 214.2 102.101 204.6C101.33 203.162 101.049 201.512 101.301 199.9C102.001 196.9 104.301 194.7 107.401 194.9C108.3 194.961 109.173 195.227 109.953 195.678C110.733 196.129 111.399 196.752 111.901 197.5C112.102 196.409 112.102 195.291 111.901 194.2C111.601 191.3 110.601 188.7 111.601 185.8C114.401 177.8 125.401 178.6 132.101 174.9C132.201 173.1 132.101 171.4 132.101 169.6Z" fill="#B35E2B"/>
<path d="M115.399 236.4C112.467 234.548 110.192 231.819 108.899 228.6C108.599 228 107.599 228.5 107.899 229.2C109.335 232.557 111.737 235.412 114.799 237.4C115.399 237.8 115.999 236.8 115.399 236.4Z" fill="#D4654A"/>
<path d="M109.8 198.8C109.6 198.1 108.6 198.4 108.7 199.1C109.184 201.752 109.116 204.475 108.5 207.1C108.487 207.166 108.487 207.233 108.5 207.299C108.513 207.365 108.539 207.427 108.576 207.483C108.613 207.539 108.661 207.586 108.716 207.624C108.772 207.661 108.834 207.687 108.9 207.7C108.966 207.713 109.033 207.713 109.099 207.7C109.165 207.687 109.227 207.661 109.283 207.624C109.339 207.587 109.387 207.539 109.424 207.484C109.461 207.428 109.487 207.366 109.5 207.3C110.199 204.52 110.301 201.623 109.8 198.8Z" fill="#D4654A"/>
<path d="M182.101 457.6C173.701 446.9 157.701 443.4 145.001 446.7C137.001 448.8 129.701 454 123.501 459.4L122.901 460C121.982 460.797 121.204 461.744 120.601 462.8C120.291 463.322 120.095 463.904 120.026 464.507C119.957 465.11 120.017 465.721 120.201 466.3C120.387 466.937 120.772 467.498 121.301 467.9C121.65 468.254 122.073 468.527 122.54 468.7C123.006 468.873 123.505 468.941 124.001 468.9C123.901 469.3 123.701 469.7 123.601 470.2C123.422 470.652 123.288 471.121 123.201 471.6L125.201 473.2L133.401 479.1C145.001 487.3 157.401 495.2 170.401 502.6L171.301 500.9L174.801 493.5C176.701 489.6 178.701 485.3 180.601 481.5C180.807 480.938 181.075 480.402 181.401 479.9C182.201 478.3 182.901 476.7 183.701 475.3C184.562 473.775 185.17 472.12 185.501 470.4C185.698 469.615 185.799 468.809 185.801 468C185.858 464.201 184.544 460.509 182.101 457.6Z" fill="#000D1A"/>
<path d="M136.4 322.2C127.643 313.851 121.969 302.784 120.3 290.8C120.2 290.1 119.1 290.4 119.2 291.1C120.91 303.279 126.69 314.522 135.6 323C136.1 323.5 136.9 322.7 136.4 322.2Z" fill="#382732"/>
<path d="M218.1 340.5L214.1 342.6C212.567 343.345 210.999 344.012 209.4 344.6L202.6 347.1C190.4 351 177.7 353.6 177.7 354.1C177.7 354.6 177.4 356.9 177.3 359C177.217 359.327 177.183 359.664 177.2 360C177 361.8 176.9 363.7 176.8 365.6C176.4 371.4 176.1 377 176.6 377.3C177.1 377.6 193.5 369.6 207.1 362C212.6 358.8 217.7 355.7 221 353.3L223.5 351.2C221.901 347.535 220.098 343.963 218.1 340.5Z" fill="#F08A71"/>
<path d="M233.799 324.3C230.099 326.4 225.699 329.5 223.099 330.9C220.499 332.3 217.599 337.5 215.199 340.6C209.999 347.3 221.399 356.2 226.499 353.6C231.599 351 237.899 344.4 240.399 340.7C242.899 337 254.699 336 252.699 332.8C250.699 329.6 237.999 321.9 233.799 324.3Z" fill="#F08A71"/>
<path d="M206.5 355.6C206.126 353.175 205.24 350.857 203.9 348.8L202.6 347.1C201.077 345.454 199.439 343.917 197.7 342.5H197.6C196.7 341.4 195.1 341.6 194 341.8C193.138 342.18 192.357 342.723 191.7 343.4L189.5 345.4L169.3 349.8C169.283 349.459 169.216 349.122 169.1 348.8C169 348.3 168.8 347.6 168.6 346.8C168.4 346 167.3 341.3 166.4 337.3L166.1 336.1C165.8 334.8 165.4 333.4 165.1 332C164.8 330.6 164.4 328.9 164 327.3C163.6 325.7 163.3 324.4 162.9 323C162.5 321.6 162 319.3 161.6 317.4C161.2 315.5 160.3 312.2 159.7 309.6C159.1 307 158.5 305.2 158 303C156.5 296.9 155 291.1 153.6 286C152.2 280.9 151.7 278.8 150.9 276.1C150.376 273.855 149.605 271.675 148.6 269.6C146.241 266.952 143.343 264.838 140.1 263.4C129.8 259 118.8 264 112.3 273.9C110.306 276.844 108.788 280.084 107.8 283.5C106.019 289.858 105.847 296.559 107.3 303C108.286 307.143 109.798 311.142 111.8 314.9L113.4 318.1C115 321.5 117.1 326 119.3 331.1C119.6 331.7 119.8 332.4 120.1 333L121 335.1C121.208 335.447 121.375 335.816 121.5 336.2C123.9 341.6 126.4 347.4 128.9 352.8C129.226 353.618 129.593 354.419 130 355.2L131.5 358.4C131.624 358.817 131.791 359.219 132 359.6C133 361.8 134.1 363.9 135.1 365.9C138.2 372.1 140.9 376.6 142.7 377.7C152.3 383.3 156.4 384.3 167.4 382.9C175.2 381.9 197.7 370.5 197.7 370.5C197.7 370.5 201.4 371.8 203.6 371C205.8 370.2 207.2 368.6 207.1 362C207.068 359.854 206.867 357.714 206.5 355.6Z" fill="#0085FF"/>
<path d="M168.999 348.8C162.423 352.783 156.601 357.895 151.799 363.9C151.754 363.953 151.718 364.014 151.696 364.08C151.674 364.146 151.665 364.216 151.669 364.285C151.674 364.355 151.692 364.423 151.723 364.486C151.754 364.548 151.797 364.604 151.849 364.65C151.902 364.696 151.963 364.731 152.029 364.753C152.095 364.776 152.165 364.785 152.235 364.78C152.304 364.776 152.373 364.757 152.435 364.726C152.498 364.695 152.554 364.653 152.599 364.6C157.304 358.772 162.948 353.77 169.299 349.8C169.899 349.4 169.599 348.4 168.999 348.8Z" fill="#0072DB"/>
<path d="M164.201 355.6C159.663 360.233 156.184 365.794 154.001 371.9C153.989 372.02 154.015 372.141 154.074 372.247C154.132 372.352 154.222 372.438 154.33 372.492C154.438 372.546 154.56 372.566 154.679 372.55C154.799 372.533 154.911 372.481 155.001 372.4C157.122 366.474 160.46 361.058 164.801 356.5C165.301 356 164.701 355.1 164.201 355.6Z" fill="#0072DB"/>
<path d="M104.099 252.3C91.6405 248.574 78.4648 247.922 65.6992 250.4C64.9992 250.6 65.2992 251.6 65.9992 251.5C78.5635 249.092 91.5206 249.709 103.799 253.3C103.865 253.32 103.934 253.326 104.002 253.319C104.07 253.312 104.136 253.292 104.197 253.26C104.257 253.227 104.31 253.183 104.354 253.13C104.397 253.077 104.429 253.016 104.449 252.95C104.469 252.884 104.475 252.815 104.469 252.747C104.462 252.679 104.441 252.613 104.409 252.552C104.376 252.492 104.332 252.439 104.279 252.395C104.226 252.352 104.165 252.32 104.099 252.3Z" fill="#0072DB"/>
<path d="M32.1004 272.7C29.2004 278.4 26.5004 284.2 24.1004 290C18.9882 302.366 14.9402 315.146 12.0004 328.2C11.3004 330.9 10.8004 333.6 10.2004 336.3C9.97508 335.715 9.70771 335.147 9.40039 334.6C9.80039 332.7 10.2004 330.8 10.7004 328.9C14.2082 313.159 19.3009 297.815 25.9004 283.1C27.5004 279.4 29.3004 275.8 31.1004 272.1C31.5004 271.5 32.4004 272.1 32.1004 272.7Z" fill="#0072DB"/>
<path d="M94.9992 375.3C88.0781 382.011 80.3129 387.793 71.8992 392.5C71.1992 392.9 71.7992 393.9 72.3992 393.5C80.9292 388.752 88.7968 382.902 95.7992 376.1C95.8527 375.988 95.8701 375.862 95.8492 375.74C95.8282 375.618 95.7698 375.505 95.6821 375.417C95.5943 375.329 95.4816 375.271 95.3593 375.25C95.237 375.229 95.1112 375.247 94.9992 375.3Z" fill="#0072DB"/>
<path d="M195.7 449C195.694 448.874 195.647 448.753 195.568 448.654C195.489 448.556 195.381 448.485 195.259 448.452C195.137 448.418 195.007 448.424 194.889 448.469C194.771 448.514 194.67 448.594 194.6 448.7C190.883 462.21 183.012 474.209 172.1 483H172C171.3 483.1 171.6 484.2 172.3 484C180.654 482.534 188.228 478.18 193.7 471.7C193.793 471.594 193.84 471.455 193.83 471.315C193.821 471.174 193.756 471.043 193.65 470.95C193.544 470.857 193.405 470.81 193.265 470.82C193.124 470.829 192.993 470.894 192.9 471C188.081 476.598 181.658 480.577 174.5 482.4C184.734 473.626 192.116 461.996 195.7 449Z" fill="#011C35"/>
<path d="M172.5 489.6C171.1 482.8 165.4 480 158.9 479.9C154.596 479.726 150.345 478.882 146.3 477.4C143 476.3 139.8 475.6 136.4 476.2C135.7 476.4 136 477.4 136.7 477.3C143 476.2 148.7 480.2 154.9 480.9C158.3 481.3 161.9 480.6 165.1 482C166.715 482.703 168.133 483.791 169.231 485.168C170.329 486.545 171.074 488.169 171.4 489.9C171.6 490.6 172.6 490.3 172.5 489.6Z" fill="#011C35"/>
<path d="M111.901 155.2C111.768 155.16 111.625 155.175 111.503 155.24C111.381 155.306 111.29 155.417 111.251 155.55C111.211 155.683 111.225 155.826 111.291 155.947C111.357 156.069 111.468 156.16 111.601 156.2C115.007 157.191 118.063 159.125 120.417 161.779C122.77 164.434 124.325 167.7 124.901 171.2C125.001 171.9 126.101 171.6 125.901 170.9C125.312 167.219 123.68 163.783 121.199 161C118.718 158.218 115.491 156.205 111.901 155.2Z" fill="#9E5326"/>
<path d="M117.999 163.5C117.499 163 116.699 163.8 117.199 164.3C119.449 166.512 120.833 169.456 121.099 172.6C121.199 173.3 122.299 173.3 122.199 172.6C121.943 169.159 120.451 165.927 117.999 163.5Z" fill="#9E5326"/>
<path d="M125 338C117.793 328.977 113.392 318.036 112.343 306.535C111.294 295.034 113.644 283.478 119.1 273.3C119.4 272.7 118.4 272.2 118 272.9C112.491 283.274 110.142 295.035 111.244 306.729C112.345 318.423 116.85 329.538 124.2 338.7C124.6 339.3 125.5 338.6 125 338Z" fill="#0072DB"/>
<path d="M123.2 471.6L121.6 470.4L121.3 467.9C121.1 466.2 120.8 464.5 120.6 462.8C118.5 448.2 115.3 434.2 111.5 433C107.7 431.8 92.0004 431 76.6004 430.9L73.4004 427.5C88.8004 427.6 107.5 428.1 112.6 429.8C117.7 431.5 121.5 446.2 123.5 459.4C124.3 464.5 124.8 469.3 125.2 473.2L123.2 471.6Z" fill="#022E57"/>
<path d="M537.999 528.2C537.999 528.5 537.899 528.7 537.899 528.9C531.399 531.5 524.699 533.9 517.999 536.1C517.799 531.1 517.499 526.1 517.199 521.2C517.246 521.093 517.323 521.002 517.42 520.938C517.518 520.874 517.632 520.84 517.749 520.84C517.866 520.84 517.98 520.874 518.078 520.938C518.176 521.002 518.253 521.093 518.299 521.2L518.599 526.5L518.899 526.3C524.698 525.518 530.549 525.184 536.399 525.3L537.999 526.2V526.4C537.851 526.991 537.851 527.609 537.999 528.2Z" fill="#A15A3C"/>
<path d="M676 362.4L675.3 362.9L671.3 366L664 371.7L659.1 375.6L636.7 392.9L633 395.8L628.5 399.3L609.5 414.1L592.8 427L570.9 444C570.9 444 565.5 472.6 564 480.4C562.5 488.2 566.2 490 565.9 499.3C565.6 508.6 561.5 511.8 561.4 519L553.3 522.6L547.6 525L542.1 527.3L537.9 528.9C531.4 531.5 524.7 533.9 518 536.1H517.9C516.7 513.5 514.2 461.4 514.3 430.7V429.9C514.204 423.892 514.438 417.883 515 411.9C515.065 410.754 515.232 409.616 515.5 408.5C516.2 406.3 519.7 403.3 525.2 399.6C534.2 393.7 548.5 386.2 564.4 378.6L587.4 367.8C608.7 358.1 629.6 349.2 642.1 344L643.8 343.3L653.5 339.3L656.6 342.5L658.4 344.4L659.2 345.2L667.4 353.6L670.4 356.7L675.4 361.8L676 362.4Z" fill="#3E3B5C"/>
<path d="M702.801 391.9L690.501 396.9L660.201 409.2L645.001 415.3L643.501 416L640.001 417.3L633.501 420L630.001 421.4C615.301 427.2 601.001 432.9 590.001 437.1C580.601 440.7 573.601 443.3 570.901 444C573.901 460 576.401 470.7 578.901 478.3C579.057 478.849 579.257 479.384 579.501 479.9C582.001 485.8 585.801 486.3 589.601 493.9C591.074 496.783 592.055 499.893 592.501 503.1C585.767 506.9 578.967 510.5 572.101 513.9L561.401 519L553.301 522.6L547.601 510.8L541.901 499C528.201 470.1 514.801 439.7 514.301 430.7V429.9C514.601 426.5 522.401 420 534.401 411.9C536.501 410.4 538.801 408.9 541.201 407.4C543.601 405.9 544.801 405 546.701 403.9C552.301 400.3 558.501 396.6 564.901 392.9C591.401 377.2 622.501 360.5 643.101 349.6L645.801 348.2L656.601 342.5L660.001 340.7C660.541 340.516 661.047 340.246 661.501 339.9L665.701 337.8L675.501 352.1L676.001 352.9L678.201 356.1L681.901 361.5L690.101 373.4L690.901 374.7L701.101 389.6L702.801 391.9Z" fill="#4A476E"/>
<path d="M285.3 403.3C285.3 403.4 285.2 406.5 285.2 411.7C285 429.6 284.5 473.6 284.3 517.2C284.2 528.1 284.1 538.4 284.1 547.8L289.7 549.1C289.8 506.5 290.2 454.6 290.7 411.7C290.8 408.9 290.8 406.1 290.8 403.4L285.3 403.3ZM547.6 512.6V510.8C547.3 471.1 547 431.6 546.8 410.7C546.8 408.1 546.7 405.8 546.7 403.8C546.7 401.8 546.7 398.1 546.6 396.8V395.5H541.1V399.4C541.1 402 541.2 404.5 541.2 407.2V411.7C541.5 439.1 541.8 469.6 541.9 498.9C542 508.5 542 518 542.1 527.2L547.6 524.9V512.6Z" fill="#033B70"/>
<path d="M284.4 399.5V411.7H544.8C553 411.7 690.7 246.8 690.7 246.8V232.1C690.7 232.1 600 235.7 597 237.9C594 240.1 284.4 399.5 284.4 399.5Z" fill="#E3B58A"/>
<path d="M487.3 223L284.4 399.5H542.8C550.4 399.5 690.7 232.1 690.7 232.1L487.3 223Z" fill="#F5CCA4"/>
<path d="M255.5 379.1C255.5 377.5 284.1 339.8 286.1 339.8C288.1 339.8 330.9 345.9 330.4 346.7C329.9 347.5 308.3 387.2 305.9 388.1C303.5 389 255.5 380.4 255.5 379.1Z" fill="#F7F4F0"/>
<path d="M289.099 380.2H288.999L273.599 377C273.533 376.988 273.47 376.963 273.413 376.926C273.357 376.889 273.309 376.841 273.271 376.785C273.234 376.729 273.208 376.666 273.196 376.6C273.184 376.534 273.185 376.466 273.199 376.4C273.244 376.285 273.331 376.19 273.442 376.134C273.552 376.079 273.68 376.067 273.799 376.1L289.199 379.2C289.266 379.212 289.329 379.237 289.385 379.274C289.441 379.311 289.49 379.359 289.527 379.415C289.564 379.471 289.59 379.534 289.602 379.6C289.615 379.666 289.614 379.734 289.599 379.8C289.554 379.902 289.485 379.991 289.398 380.061C289.311 380.13 289.208 380.178 289.099 380.2Z" fill="#F0DCC0"/>
<path d="M310.199 347.5L298.099 345.4C297.799 345.4 297.699 345.1 297.699 344.9C297.723 344.785 297.785 344.683 297.877 344.609C297.968 344.536 298.082 344.498 298.199 344.5L310.299 346.6C310.599 346.6 310.699 346.8 310.699 347.1C310.676 347.215 310.613 347.317 310.522 347.391C310.43 347.464 310.316 347.502 310.199 347.5Z" fill="#F0DCC0"/>
<path d="M321.899 352.7H321.799L285.099 346.5C285.033 346.488 284.97 346.463 284.913 346.426C284.857 346.389 284.809 346.341 284.771 346.285C284.734 346.229 284.708 346.166 284.696 346.1C284.684 346.034 284.685 345.966 284.699 345.9C284.745 345.798 284.814 345.709 284.901 345.639C284.988 345.57 285.09 345.522 285.199 345.5L321.899 351.8C322.199 351.8 322.399 352 322.299 352.3C322.299 352.406 322.257 352.508 322.182 352.583C322.107 352.658 322.005 352.7 321.899 352.7Z" fill="#F0DCC0"/>
<path d="M319.4 356L283 350.3C282.934 350.287 282.872 350.261 282.816 350.224C282.76 350.186 282.713 350.139 282.675 350.083C282.638 350.027 282.613 349.965 282.6 349.899C282.587 349.833 282.587 349.766 282.6 349.7C282.613 349.634 282.639 349.572 282.676 349.516C282.713 349.461 282.761 349.413 282.817 349.376C282.873 349.339 282.935 349.313 283.001 349.3C283.066 349.287 283.134 349.287 283.2 349.3L319.5 355.1C319.614 355.123 319.717 355.186 319.79 355.278C319.863 355.369 319.902 355.483 319.9 355.6C319.9 355.9 319.7 356 319.4 356Z" fill="#F0DCC0"/>
<path d="M317.199 360H317.099L280.799 354.2C280.499 354.2 280.299 354 280.399 353.7C280.499 353.4 280.699 353.3 280.899 353.3L317.199 359.1C317.499 359.1 317.699 359.4 317.599 359.6C317.599 359.706 317.557 359.808 317.482 359.883C317.407 359.958 317.305 360 317.199 360Z" fill="#F0DCC0"/>
<path d="M286.9 350.2L298.8 375.9C298.883 376.049 298.934 376.214 298.948 376.384C298.963 376.554 298.941 376.725 298.884 376.886C298.827 377.047 298.737 377.194 298.619 377.317C298.501 377.44 298.358 377.536 298.2 377.6C297.894 377.739 297.546 377.754 297.229 377.643C296.912 377.531 296.65 377.3 296.5 377L284.5 351.3C284.2 350.6 286.7 349.8 286.9 350.2Z" fill="#382732"/>
<path d="M286.801 350.1C286.054 349.217 285.252 348.382 284.401 347.6C284.101 347.6 284.501 351.2 284.501 351.2L286.201 351.8L286.801 350.1Z" fill="#382732"/>
<path d="M298.54 371.49L295.996 372.66L296.773 374.35L299.317 373.18L298.54 371.49Z" fill="#382732"/>
<path d="M300.7 376.1C300.518 376.106 300.34 376.049 300.195 375.94C300.049 375.831 299.945 375.676 299.9 375.5L294.8 364.6C294.751 364.489 294.726 364.369 294.725 364.247C294.724 364.126 294.747 364.005 294.794 363.893C294.841 363.781 294.91 363.68 294.996 363.595C295.083 363.51 295.187 363.444 295.3 363.4C295.515 363.318 295.753 363.313 295.971 363.386C296.19 363.459 296.377 363.605 296.5 363.8L301.5 374.7C301.568 374.809 301.612 374.932 301.629 375.06C301.646 375.188 301.635 375.318 301.597 375.441C301.559 375.565 301.495 375.678 301.409 375.775C301.323 375.871 301.218 375.948 301.1 376L300.7 376.1Z" fill="#382732"/>
<path d="M301.6 370C301.6 366.9 357.2 337.1 359.8 337.6C362.4 338.1 407 352.9 407.3 354.1C407.6 355.3 350.9 393.5 349.6 392.7C348.3 391.9 301.6 373.1 301.6 370Z" fill="white"/>
<path d="M399.653 356.094L397.883 358.264L404.85 363.946L406.619 361.776L399.653 356.094Z" fill="#939CBB"/>
<path d="M381.483 368.104L379.719 370.26L386.641 375.924L388.405 373.768L381.483 368.104Z" fill="#D96249"/>
<path d="M394.1 354.5H394L358.6 342.5C358.536 342.52 358.467 342.518 358.404 342.494C358.341 342.47 358.288 342.426 358.254 342.368C358.219 342.31 358.205 342.243 358.213 342.176C358.222 342.109 358.252 342.047 358.3 342C358.308 341.934 358.332 341.87 358.37 341.816C358.408 341.761 358.459 341.717 358.519 341.687C358.579 341.657 358.645 341.643 358.711 341.645C358.778 341.647 358.843 341.666 358.9 341.7L394.3 353.6C394.416 353.645 394.51 353.731 394.566 353.842C394.621 353.953 394.634 354.081 394.6 354.2C394.559 354.296 394.488 354.377 394.399 354.43C394.309 354.484 394.205 354.509 394.1 354.5Z" fill="#F0DCC0"/>
<path d="M378.501 354.5H378.301L355.301 345.2C355.204 345.138 355.13 345.045 355.094 344.936C355.058 344.826 355.06 344.708 355.101 344.6C355.108 344.534 355.132 344.47 355.171 344.416C355.209 344.361 355.26 344.317 355.32 344.287C355.379 344.257 355.445 344.243 355.512 344.245C355.578 344.247 355.643 344.266 355.701 344.3L378.601 353.6C378.667 353.608 378.73 353.631 378.785 353.67C378.84 353.708 378.884 353.759 378.914 353.819C378.944 353.878 378.958 353.944 378.956 354.011C378.954 354.078 378.935 354.143 378.901 354.2C378.866 354.281 378.811 354.351 378.741 354.404C378.671 354.456 378.588 354.49 378.501 354.5Z" fill="#F0DCC0"/>
<path d="M374.301 357.2H374.101L351.201 347.9C351.135 347.892 351.071 347.869 351.017 347.83C350.962 347.792 350.918 347.741 350.888 347.681C350.858 347.622 350.844 347.556 350.846 347.489C350.848 347.422 350.867 347.357 350.901 347.3C350.962 347.203 351.056 347.13 351.165 347.093C351.274 347.057 351.393 347.059 351.501 347.1L374.501 356.3C374.606 356.379 374.683 356.49 374.719 356.616C374.755 356.743 374.749 356.878 374.701 357L374.301 357.2Z" fill="#F0DCC0"/>
<path d="M379.7 364.9H379.5L346.6 351.2C346.502 351.138 346.429 351.045 346.393 350.936C346.356 350.826 346.359 350.708 346.4 350.6C346.407 350.534 346.431 350.47 346.469 350.416C346.508 350.361 346.559 350.317 346.618 350.287C346.678 350.257 346.744 350.243 346.811 350.245C346.877 350.247 346.942 350.266 347 350.3L379.8 364C379.869 364.021 379.933 364.058 379.986 364.106C380.04 364.155 380.083 364.214 380.111 364.281C380.14 364.347 380.154 364.419 380.152 364.492C380.15 364.564 380.132 364.635 380.1 364.7L379.7 364.9Z" fill="#F0DCC0"/>
<path d="M351.9 383.3C351.8 383.3 351.7 383.3 351.7 383.2L317.6 365.6C317.502 365.538 317.429 365.445 317.393 365.336C317.356 365.226 317.359 365.108 317.4 365C317.5 364.7 317.8 364.6 318 364.8L352.1 382.4C352.197 382.462 352.27 382.555 352.307 382.664C352.343 382.774 352.341 382.892 352.3 383C352.265 383.081 352.21 383.151 352.14 383.204C352.07 383.256 351.987 383.29 351.9 383.3Z" fill="#F0DCC0"/>
<path d="M524.801 270.2C527.901 268.9 534.201 270 544.301 270.4C552.401 270.8 561.801 271.4 569.701 272C579.401 272.8 586.301 272.4 587.501 274.3C588.701 276.2 581.801 281.8 572.701 291.6C554.801 310.9 547.101 319.2 530.101 335.6C523.201 342.2 520.801 345.6 517.401 346.7C514.001 347.8 509.701 347.3 501.301 347.4C489.301 347.5 473.301 347.3 461.501 346.6C452.501 346 445.701 346.1 445.601 344C445.501 341.9 452.501 335.3 463.101 324.8C483.601 304.7 494.601 296.2 512.501 280.4C519.401 274.3 521.601 271.5 524.801 270.2Z" fill="#4F4D63"/>
<path d="M458.6 337.1L458.2 336.9C458.101 336.79 458.047 336.648 458.047 336.5C458.047 336.352 458.101 336.21 458.2 336.1L525.2 274.5C525.4 274.2 525.7 274.3 525.9 274.5C525.962 274.547 526.012 274.607 526.047 274.676C526.082 274.746 526.1 274.822 526.1 274.9C526.1 274.978 526.082 275.054 526.047 275.124C526.012 275.193 525.962 275.253 525.9 275.3L459 336.9C458.9 337.1 458.8 337.1 458.6 337.1Z" fill="#3C3A4F"/>
<path d="M472.9 337.9C472.823 337.9 472.746 337.882 472.677 337.847C472.607 337.812 472.547 337.762 472.5 337.7C472.402 337.59 472.348 337.448 472.348 337.3C472.348 337.152 472.402 337.01 472.5 336.9L539.4 275.2C539.512 275.147 539.638 275.129 539.76 275.15C539.883 275.171 539.996 275.229 540.083 275.317C540.171 275.405 540.229 275.518 540.25 275.64C540.271 275.762 540.254 275.888 540.2 276L473.3 337.7L472.9 337.9Z" fill="#3C3A4F"/>
<path d="M487.1 337.9L486.7 337.7C486.601 337.59 486.547 337.448 486.547 337.3C486.547 337.152 486.601 337.01 486.7 336.9L553.6 275.2C553.712 275.147 553.837 275.129 553.96 275.15C554.082 275.171 554.195 275.229 554.283 275.317C554.37 275.405 554.429 275.518 554.45 275.64C554.471 275.762 554.453 275.888 554.4 276L487.5 337.7L487.1 337.9Z" fill="#3C3A4F"/>
<path d="M501.301 338.5H500.901C500.844 338.446 500.8 338.379 500.774 338.306C500.747 338.232 500.738 338.153 500.748 338.075C500.758 337.997 500.786 337.922 500.83 337.857C500.873 337.792 500.932 337.738 501.001 337.7L567.901 276C568.011 275.902 568.153 275.847 568.301 275.847C568.448 275.847 568.591 275.902 568.701 276C568.758 276.054 568.801 276.121 568.828 276.194C568.854 276.268 568.863 276.347 568.853 276.425C568.843 276.503 568.816 276.578 568.772 276.643C568.728 276.708 568.669 276.762 568.601 276.8L501.701 338.5H501.301Z" fill="#3C3A4F"/>
<path d="M515.6 339.1H515.2C515.101 338.99 515.047 338.848 515.047 338.7C515.047 338.552 515.101 338.41 515.2 338.3L578.4 276.3C578.512 276.247 578.637 276.229 578.76 276.25C578.882 276.271 578.995 276.329 579.082 276.417C579.17 276.505 579.229 276.618 579.25 276.74C579.271 276.862 579.253 276.988 579.2 277.1L516 339L515.6 339.1Z" fill="#3C3A4F"/>
<path d="M578.9 277H578.8L525.5 275.4C525.359 275.376 525.231 275.303 525.139 275.193C525.048 275.082 524.998 274.943 525 274.8C524.998 274.738 525.011 274.676 525.037 274.62C525.063 274.563 525.102 274.514 525.15 274.475C525.199 274.436 525.256 274.409 525.316 274.396C525.377 274.383 525.44 274.384 525.5 274.4L578.9 276C579.033 276 579.16 276.053 579.254 276.146C579.348 276.24 579.4 276.367 579.4 276.5C579.4 276.633 579.348 276.76 579.254 276.854C579.16 276.947 579.033 277 578.9 277Z" fill="#3C3A4F"/>
<path d="M571 284.2L517.6 282.6C517.459 282.576 517.331 282.503 517.239 282.392C517.147 282.282 517.098 282.143 517.1 282C517.098 281.938 517.11 281.876 517.136 281.82C517.162 281.763 517.201 281.714 517.25 281.675C517.298 281.636 517.355 281.609 517.416 281.596C517.477 281.583 517.54 281.584 517.6 281.6L571 283.2C571.132 283.2 571.26 283.253 571.353 283.346C571.447 283.44 571.5 283.567 571.5 283.7C571.5 283.833 571.447 283.96 571.353 284.054C571.26 284.147 571.132 284.2 571 284.2Z" fill="#3C3A4F"/>
<path d="M563.8 292L510.1 289.7C509.967 289.7 509.84 289.647 509.746 289.554C509.652 289.46 509.6 289.333 509.6 289.2C509.6 289.067 509.652 288.94 509.746 288.846C509.84 288.753 509.967 288.7 510.1 288.7L563.8 291C563.932 291 564.059 291.053 564.153 291.146C564.247 291.24 564.3 291.367 564.3 291.5C564.3 291.633 564.247 291.76 564.153 291.854C564.059 291.947 563.932 292 563.8 292Z" fill="#3C3A4F"/>
<path d="M556.499 299.1L502.699 296.8C502.584 296.746 502.486 296.661 502.416 296.555C502.345 296.45 502.305 296.327 502.299 296.2C502.297 296.138 502.31 296.076 502.336 296.02C502.362 295.963 502.4 295.914 502.449 295.875C502.497 295.836 502.554 295.809 502.615 295.796C502.676 295.783 502.739 295.784 502.799 295.8L556.499 298.1C556.632 298.1 556.759 298.153 556.853 298.246C556.946 298.34 556.999 298.467 556.999 298.6C556.999 298.733 556.946 298.86 556.853 298.954C556.759 299.047 556.632 299.1 556.499 299.1Z" fill="#3C3A4F"/>
<path d="M547.399 307.3L493.699 305.1C493.558 305.076 493.43 305.003 493.338 304.892C493.247 304.782 493.197 304.643 493.199 304.5C493.199 304.3 493.499 304 493.699 304.1L547.399 306.3C547.541 306.324 547.669 306.397 547.76 306.508C547.852 306.618 547.901 306.757 547.899 306.9C547.876 307.015 547.813 307.117 547.722 307.191C547.63 307.264 547.516 307.302 547.399 307.3Z" fill="#3C3A4F"/>
<path d="M539.599 315.4L484.699 313C484.567 313 484.439 312.947 484.346 312.854C484.252 312.76 484.199 312.633 484.199 312.5C484.199 312.367 484.252 312.24 484.346 312.146C484.439 312.053 484.567 312 484.699 312L539.599 314.4C539.732 314.4 539.859 314.453 539.953 314.546C540.047 314.64 540.099 314.767 540.099 314.9C540.099 315.033 540.047 315.16 539.953 315.254C539.859 315.347 539.732 315.4 539.599 315.4Z" fill="#3C3A4F"/>
<path d="M530.701 324.4L475.301 322.1C475.16 322.076 475.032 322.003 474.94 321.892C474.848 321.782 474.799 321.643 474.801 321.5C474.855 321.385 474.94 321.287 475.045 321.217C475.151 321.146 475.274 321.106 475.401 321.1L530.701 323.4C530.833 323.4 530.961 323.453 531.054 323.546C531.148 323.64 531.201 323.767 531.201 323.9C531.201 324.033 531.148 324.16 531.054 324.254C530.961 324.347 530.833 324.4 530.701 324.4Z" fill="#3C3A4F"/>
<path d="M522.9 331.5H522.8L467.5 329.1C467.367 329.1 467.24 329.047 467.146 328.954C467.053 328.86 467 328.733 467 328.6C467.024 328.459 467.097 328.331 467.208 328.239C467.318 328.147 467.457 328.098 467.6 328.1L522.9 330.5C523.033 330.5 523.16 330.553 523.254 330.646C523.347 330.74 523.4 330.867 523.4 331C523.4 331.133 523.347 331.26 523.254 331.354C523.16 331.447 523.033 331.5 522.9 331.5Z" fill="#3C3A4F"/>
<path d="M515.7 339.1H515.6L458.9 337C458.768 337 458.641 336.947 458.547 336.854C458.453 336.76 458.4 336.633 458.4 336.5C458.4 336.367 458.453 336.24 458.547 336.146C458.641 336.053 458.768 336 458.9 336L515.7 338.1C515.842 338.124 515.97 338.197 516.061 338.307C516.153 338.418 516.202 338.557 516.2 338.7C516.2 338.9 515.9 339.1 515.7 339.1Z" fill="#3C3A4F"/>
<path d="M610 255.6C608.4 253.7 597.6 249.2 584.9 244.4C576.8 241.4 568 238.2 560.2 235.5L548.2 231.3L539 228.1L538.2 227.8L535.1 226.7L533.1 231.2L532.3 232.9L531.6 234.4L531.1 235.5L528.1 241.8L533.1 244.3L541.9 248.8L551.4 254L554.4 255.7L555.3 256.2H555.5C556.5 256.8 557.6 257.3 558.6 258C566.8 262.6 574.9 268 583.2 272.8L587.5 275.2L588.3 275.7C592.4 277.8 597.1 279.8 601.8 278.9C604.196 278.29 606.418 277.133 608.292 275.519C610.166 273.905 611.641 271.879 612.6 269.6C614.8 264.2 613.9 260.1 610 255.6Z" fill="#A15A3C"/>
<path d="M490 242.3C488.9 239.5 495.2 238.2 496.7 237.7C501.553 235.873 506.533 234.402 511.6 233.3V233L496.6 236.7C495.5 236.9 488.9 239.5 489.7 236C489.9 234.8 492 234.1 492.9 233.7C495.485 232.413 498.159 231.31 500.9 230.4C504.609 229.222 508.382 228.254 512.2 227.5C517.4 226.7 519.5 226.6 525.3 225.9C531.1 225.2 540.5 240.4 540.5 240.4C537.879 242.4 534.888 243.861 531.7 244.7C531.8 245 511.3 249.8 508.6 250.1C506.52 250.465 504.411 250.632 502.3 250.6C500.7 250.4 499.9 249.3 501 248C502.1 246.7 504.8 246.4 506.1 245.9L508.8 244.9L507 245.2C503.8 245.7 500.5 246.6 497.3 246.5C495.6 246.5 492.1 245.4 492.9 243.5H492.7C491.5 243.6 490.4 243.3 490 242.3Z" fill="#A15A3C"/>
<path d="M538.201 227.8C538.201 227.8 531.101 222.1 527.801 221.1C524.501 220.1 520.501 220.8 516.601 221C512.701 221.2 509.701 219.7 508.201 220.9C506.701 222.1 509.701 224.6 512.201 225.3C514.701 226 517.601 226.2 518.801 227.3C520.001 228.4 523.601 232.6 524.001 232.9C525.8 233.336 527.653 233.505 529.501 233.4C531.471 233.22 533.398 232.713 535.201 231.9C536.701 231.2 538.201 227.8 538.201 227.8Z" fill="#A15A3C"/>
<path d="M519 228.5C518.6 227.9 519.4 227.2 519.8 227.8C521.204 229.914 523.128 231.631 525.387 232.787C527.646 233.943 530.164 234.498 532.7 234.4C533.4 234.3 533.5 235.5 532.8 235.5C530.092 235.615 527.401 235.031 524.984 233.805C522.567 232.579 520.507 230.752 519 228.5Z" fill="#75422C"/>
<path d="M501.101 240.8L510.601 238.1C511.301 237.9 511.701 239 511.001 239.2L501.501 241.9C500.901 242.1 500.401 241 501.101 240.8Z" fill="#75422C"/>
<path d="M510.101 244.1L513.101 243.5C513.801 243.4 513.901 244.5 513.201 244.6L510.201 245.3C509.501 245.4 509.401 244.3 510.101 244.1Z" fill="#75422C"/>
<path d="M645.9 198.7C645.9 198.7 630.6 226.5 628.6 251.6C624 307.8 649.8 356.6 649.8 356.6L695.3 376.5C695.3 376.5 678.5 265.5 678.5 261.5C678.5 257.5 681.2 213.1 681.2 213.1L645.9 198.7Z" fill="#939CBB"/>
<path d="M684.8 204.6C684.8 204.6 642.5 285.1 628.6 289.3C614.7 293.5 549.1 259 549.1 259C549.1 259 560.6 233.6 562.2 232.1C563.8 230.6 570.3 235 578.2 236.8C586.1 238.6 614.9 246.9 614.9 246.9C614.9 246.9 636.6 195.4 646.7 191.3C660 185.8 684.8 204.6 684.8 204.6Z" fill="#0064C0"/>
<path d="M703.6 176C700.593 172.994 698.541 169.167 697.7 165C697.5 164 697.3 163 697 162C695.6 156.8 691.5 152.5 687.5 149.2C683.5 145.9 678.7 138.3 675.3 132.1C671.9 125.9 667.4 118.6 660.3 114.8C653.2 111 646.2 111.7 639.3 113.1C630.1 115 620.5 119 614.2 126.2C607.9 133.4 605.2 145.7 611 154.7C611.1 154.9 611.3 155 611.3 155.3C609.9 185.8 620 192.2 624.1 196.1C625.6 197.7 626.7 204.5 625.5 208.4C624.3 212.3 626.9 220.8 635.5 216.2C644.1 211.6 647.6 206.6 649.2 202.2C650.1 199.8 658 197.2 665.1 203.1C668.2 205.7 671.9 210.1 675.9 211.3C679.9 212.5 683.6 208.8 686.6 206.7C691.7 203.4 696.7 200 701.7 196.6C704.5 194.8 708 193 708.9 189.5C710.3 184.3 707 179.5 703.6 176Z" fill="#2E1911"/>
<path d="M640.6 191.4L652.5 211C652.5 211 649.7 220.8 657.8 220.4C673.7 219.6 679.8 194.6 679.8 194.6L662.3 161.9C662.3 161.9 662 164 658.8 168.8C655.6 173.6 640.6 191.4 640.6 191.4Z" fill="#A15A3C"/>
<path d="M668.2 148C668.9 151.2 669.499 154.3 670.099 157.4C671.299 163.8 670.8 167.7 667.2 173.4C665.2 176.6 661.4 179.2 658.5 181.6C655.6 184 653.2 186.7 650.3 188.8C646.355 191.49 641.894 193.329 637.2 194.2H636.599C630.299 195.4 625.7 191.9 622.4 186.9C619.267 182.135 616.747 176.995 614.9 171.6C613.2 167.053 611.764 162.412 610.599 157.7C610.419 157.145 610.285 156.577 610.2 156L609.9 154.5L609.599 152.9C608.399 146.7 608.1 140.5 609.4 135.1C609.643 134.89 609.817 134.611 609.9 134.3C614.8 122.4 633.699 118.4 645.099 122.3C656.499 126.2 663 137.3 668.2 148Z" fill="#A15A3C"/>
<path d="M657.1 146.7C656.8 145.9 657.9 145.3 658.2 146C658.5 146.7 660.2 149.7 661.1 151.6C662 153.5 660.4 152.9 660 152.2C659.6 151.5 658.1 148.5 657.1 146.7Z" fill="#D4654A"/>
<path d="M624.3 158.4C624.4 157.6 623.2 157.7 623.1 158.4L622.5 172.2C622.4 174.4 624.5 176.6 626.3 177.5C626.365 177.572 626.447 177.628 626.539 177.661C626.631 177.695 626.729 177.705 626.826 177.692C626.922 177.679 627.014 177.642 627.094 177.585C627.173 177.528 627.237 177.453 627.281 177.366C627.325 177.278 627.346 177.182 627.344 177.084C627.342 176.987 627.316 176.891 627.269 176.806C627.221 176.72 627.154 176.648 627.072 176.595C626.99 176.541 626.897 176.509 626.8 176.5C625.279 175.65 624.136 174.257 623.6 172.6L624.3 158.4Z" fill="#75422C"/>
<path d="M629.999 172C629.419 171.756 628.772 171.722 628.169 171.905C627.566 172.087 627.047 172.475 626.699 173C626.299 173.7 627.399 174.2 627.799 173.6C627.949 173.324 628.193 173.11 628.487 173C628.781 172.89 629.105 172.89 629.399 173C630.099 173.3 630.699 172.2 629.999 172Z" fill="#75422C"/>
<path d="M636.8 175.6C635.753 177.383 634.146 178.771 632.23 179.548C630.313 180.325 628.194 180.449 626.2 179.9C625.5 179.7 625.4 180.5 625.9 181.1C631.4 186.9 637.4 181.2 637.8 176.1C637.9 175.4 637.2 175 636.8 175.6Z" fill="#75422C"/>
<path d="M640.899 149.2C639.999 148.2 638.199 148.1 636.799 148.1C635.239 148.088 633.686 148.324 632.199 148.8H631.999C630.599 149.3 626.999 150.7 628.499 152.4C629.999 154.1 632.699 152.1 633.799 151.8H634.699L637.899 151.2C638.699 151 639.999 151.1 640.699 150.6C641.399 150.1 641.199 149.6 640.899 149.2Z" fill="#2E1911"/>
<path d="M613.4 153.5C612.478 153.639 611.574 153.873 610.7 154.2L609.9 154.6L610.2 156.1C610.286 156.677 610.42 157.245 610.6 157.8L611.2 157.6L613.4 156.9C614.4 156.6 618.1 156.2 618.4 155C618.7 153.8 614.6 153.2 613.4 153.5Z" fill="#2E1911"/>
<path d="M653.101 181.5C650.669 185.835 646.97 189.324 642.501 191.5C641.801 191.9 642.501 192.9 643.201 192.6C647.836 190.28 651.667 186.622 654.201 182.1C654.601 181.4 653.501 180.9 653.101 181.5Z" fill="#75422C"/>
<path d="M685.7 188.3C683.8 187.6 682 187.8 680 187.9C679.069 184.843 678.301 181.739 677.7 178.6C677.5 177.6 677.2 176.6 677 175.7C676.2 171.3 675.3 166.7 674.4 162.3C672.1 151.6 669 141.2 661.8 132.7C654.6 124.2 639 117.8 626.3 120.9L623 121.8L619.5 123.4C616.19 125.004 613.361 127.453 611.3 130.5L610.7 131.5C610.329 132.078 609.995 132.679 609.7 133.3C609.23 134.294 608.861 135.332 608.6 136.4H608.5C608.5 136.6 608.5 136.7 608.4 136.8C608.101 138.415 608 140.061 608.1 141.7C608.215 142.125 608.282 142.561 608.3 143C608.2 143.4 608.2 143.8 608.1 144.2C608 144.6 608.1 144.5 608.2 144.6C608.3 144.7 608.3 147 608.6 146.3H608.7C609.944 143.951 611.382 141.709 613 139.6C613.53 140.167 614.179 140.611 614.9 140.9C616.6 141.6 618.5 141.6 620.2 142C624.697 143.106 628.788 145.464 632 148.8L633.6 150.5L634.7 151.7C637.4 154.5 640.1 157 644 158C645.399 158.396 646.846 158.598 648.3 158.6C650.003 158.683 651.709 158.616 653.4 158.4C654.562 159.983 655.599 161.655 656.5 163.4C657.4 165 658.2 166.7 659.2 168.2C659.609 168.874 660.078 169.509 660.6 170.1C662.2 171.9 664.6 173 666.3 174.6L667.4 175.8C669 178.1 668.8 181.1 670 183.5C670.755 185.056 671.89 186.398 673.3 187.4C674.332 188.063 675.489 188.506 676.7 188.7H681.5C682.855 188.711 684.202 188.913 685.5 189.3C686.2 189.7 686.4 188.5 685.7 188.3Z" fill="#2E1911"/>
<path d="M626.8 119C620.948 122.631 616.398 128.022 613.8 134.4C613.5 135.1 614.6 135.7 614.8 135C617.322 128.802 621.73 123.555 627.4 120C627.486 119.973 627.566 119.927 627.632 119.864C627.698 119.802 627.749 119.726 627.782 119.641C627.814 119.556 627.826 119.465 627.818 119.374C627.81 119.284 627.782 119.196 627.735 119.119C627.689 119.041 627.625 118.974 627.549 118.925C627.473 118.875 627.386 118.843 627.296 118.832C627.206 118.821 627.115 118.83 627.029 118.859C626.943 118.888 626.864 118.936 626.8 119Z" fill="#1A0E09"/>
<path d="M637.403 160.865C638.353 160.569 638.749 159.132 638.289 157.656C637.829 156.179 636.687 155.222 635.738 155.518C634.789 155.813 634.392 157.25 634.852 158.726C635.312 160.203 636.454 161.16 637.403 160.865Z" fill="#2E1911"/>
<path d="M617.87 166.792C618.819 166.496 619.216 165.06 618.756 163.583C618.296 162.107 617.154 161.15 616.205 161.445C615.256 161.741 614.859 163.177 615.319 164.654C615.779 166.13 616.921 167.088 617.87 166.792Z" fill="#2E1911"/>
<path d="M678.801 188.8C678.801 188.8 669.401 202.1 660.601 206.5C651.801 210.9 646.901 206.4 646.901 206.4C646.901 206.4 632.801 237.7 632.601 274.3C632.501 286.6 639.401 331.1 643.601 351.9C645.001 358.9 646.001 357.4 649.801 356.6C653.601 355.8 660.501 384.5 690.901 373C698.201 370.3 681.301 294.5 681.301 270.8C681.301 247.1 694.301 206.1 693.001 201C691.701 195.9 678.801 188.8 678.801 188.8Z" fill="#B0D9FF"/>
<path d="M743.3 344.3C734.83 361.955 724.86 378.851 713.5 394.8C705.9 395.9 697.8 396.6 690.5 396.9C676.5 397.6 665.1 397.4 663.7 398C662.3 398.6 661.8 402.6 660.2 409.2L658.8 415.5C656 428.7 652.3 447.4 648.6 464.5C645.7 467 642.6 469.4 639.6 471.7L636.1 474.4C633.1 476.733 630.1 478.933 627.1 481L623.5 483.5C613.5 490.5 603.2 497 592.5 503.1C585.766 506.9 578.966 510.5 572.1 513.9C574 504.4 576.6 492.4 579.5 479.9C582.7 465.6 586.4 450.5 590 437.1C591 433.6 591.9 430.2 592.8 427C597.1 411.6 601 399.9 603.4 396.5C607.2 391.2 620.8 386.7 635.1 382.6L638.8 381.5C645.9 379.5 653 377.5 659.1 375.6L666.1 373C670.4 371.2 673.5 369.3 674.6 367.4C674.711 367.218 674.78 367.013 674.8 366.8C675.132 365.527 675.3 364.216 675.3 362.9C675.382 362.506 675.416 362.103 675.4 361.7C675.5 360.2 675.5 358.3 675.5 356.2V352C675.3 340.1 674.6 322.7 673.9 304.2C673.5 292.2 673.1 279.7 673 268C672.9 262.9 672.9 257.9 672.9 253.2C673 245.7 673.2 238.7 673.6 232.8C673.6 232.3 673.7 231.8 673.7 231.3C673.866 228.686 674.167 226.083 674.6 223.5V223L675.2 219.2C675.6 216.5 676 213.8 676.4 211.4V211.1C676.7 209.3 677 207.6 677.2 206C677.4 204.6 677.7 203.2 677.8 201.9L678.1 200.1C678.1 199.9 678.2 199.8 678.2 199.6C678.6 197.2 678.9 195.1 679.2 193.3C679.5 191.5 679.6 190.3 679.8 189.4V188.8C679.845 188.496 679.912 188.195 680 187.9L681.5 188.8C686.879 192.158 692.054 195.831 697 199.8L699.6 202C705.6 207.2 711 213.1 712.9 218.7C720.2 240.3 716.7 271.7 725.2 297.4C726.9 302.5 730.7 311.1 734.7 320.9C737.7 328.2 740.9 336.3 743.3 344.3Z" fill="#0064C0"/>
<path d="M676.1 367C690.431 354.756 699.58 337.529 701.7 318.8" stroke="#0054A1" stroke-miterlimit="10" stroke-linecap="round"/>
<path d="M636.099 399.9L632.699 399.7C632.799 398.2 634.899 364.6 648.199 357.6C661.499 350.6 716.199 352.1 718.499 352.2V355.5C717.899 355.5 661.999 354.1 649.899 360.5C640.099 365.6 636.599 390.7 636.099 399.9Z" fill="#022E57"/>
<path d="M631.7 405.6L635 406C634.7 409 634.3 412 634 415.1C633.8 416.7 633.6 418.3 633.5 420C631.4 439.2 629.2 460.3 627.1 481L623.5 483.5C625.9 459 628.4 436 630 421.4C630.2 419 630.5 416.9 630.7 415C631.3 409.2 631.7 405.7 631.7 405.6Z" fill="#022E57"/>
<path d="M754.6 318.3C751.2 327.2 747.4 335.9 743.3 344.3C734.831 361.955 724.861 378.851 713.5 394.8C708.5 401.9 703.2 408.8 697.8 415.4C684.7 415.6 671.3 415.6 658.8 415.5L645 415.3H640.2L634 415.1H630.7C621.6 414.8 614.2 414.5 609.5 414.2C607.61 414.135 605.733 413.867 603.9 413.4C601.4 410.9 607.9 402.3 628.5 399.4H629.4L632.8 398.9L636.2 398.5C656.5 396.2 690.7 393.3 701.1 389.7C703 389 704.1 388.3 704.2 387.6C704.5 385 708.1 370.3 712.9 355.6C713.201 354.5 713.6 353.4 714 352.3C718 340.3 722.6 328.9 726.6 325.1C728.3 323.4 731.2 322.1 734.7 321.1C740.2 319.3 747.5 318.5 754.6 318.3Z" fill="#3E3B5C"/>
<path d="M646.9 206.4C643.7 218.2 640.6 246.8 644.2 248.4C647.8 250 665.7 208 672.1 199.8C678.5 191.6 649.5 196.3 646.9 206.4Z" fill="#A15A3C"/>
<path d="M552.701 258.5C552.401 259.1 553.301 259.7 553.701 259.1C557.502 252.696 560.876 246.049 563.801 239.2C564.001 238.5 563.101 238 562.801 238.6C559.897 245.458 556.522 252.107 552.701 258.5Z" fill="#00529E"/>
<path d="M658.2 244L645.9 258.3C645.4 258.8 646.2 259.6 646.7 259.1L659.1 244.7C659.5 244.2 658.7 243.4 658.2 244Z" fill="#F0DCC0"/>
<path d="M635.5 246.2C637.8 250.4 640 254.6 642.2 258.8C642.5 259.4 643.5 258.8 643.2 258.2C640.9 254 638.7 249.8 636.5 245.6C636.1 244.9 635.2 245.5 635.5 246.2Z" fill="#98C8F2"/>
<path d="M665.601 295.8C668.206 313.379 665.197 331.332 657.001 347.1C656.701 347.8 657.701 348.3 658.001 347.6C666.285 331.645 669.329 313.484 666.701 295.7C666.601 295 665.501 295.1 665.601 295.8Z" fill="#98C8F2"/>
<path d="M485 109.5C485 109.5 480.8 107.6 478.6 108.5C476.4 109.4 371.8 201.4 371.5 207.9C371.2 214.4 381.7 333.3 382.6 334.7C383.5 336.1 387 336.6 387 336.6L485 109.5Z" fill="#7C86A6"/>
<path d="M429.499 291.1C429.499 291.1 403.699 316.3 403.099 318.8C402.499 321.3 430.499 324.3 433.199 323.3C435.899 322.3 476.899 279.6 476.199 277.3C475.499 275 447.999 275 446.599 275.1C445.199 275.2 429.499 291.1 429.499 291.1Z" fill="#7C86A6"/>
<path d="M485.001 109.5C487.701 110.3 486.301 119.1 486.701 133C487.201 156.9 487.201 193.3 487.301 216.1C487.401 228.1 487.701 233.8 487.701 236.9C487.701 240 483.001 242.9 475.301 251.1C457.701 269.9 425.001 303 404.701 322C394.401 331.7 388.301 337.1 387.001 336.6C385.701 336.1 385.601 326 384.501 314.4C382.601 293.3 380.101 261.8 378.401 238.9C377.201 223.6 375.301 214.5 376.401 210.4C377.501 206.3 383.701 200.9 394.601 190C414.001 170.8 444.701 142.5 464.901 125.1C475.801 115.7 482.401 108.6 485.001 109.5Z" fill="#939CBB"/>
<path d="M482.001 116C483.301 116.8 482.901 124.8 483.201 137.4C483.501 155.8 483.701 182.4 483.901 202C484.001 216.6 484.801 225.5 484.401 228C484.001 230.5 480.501 233 474.001 240C458.401 256.5 429.001 286.4 409.701 305C398.801 315.5 393.601 321.4 391.901 321C390.201 320.6 390.201 309.6 389.001 296.4C387.501 279.6 385.501 257.3 383.901 240C382.601 225.3 380.701 215.9 381.501 212.6C382.301 209.3 386.501 205.7 394.301 197.6C412.101 179.1 444.601 148.1 464.601 130.1C474.101 121.7 480.601 115.3 482.001 116Z" fill="white"/>
<path d="M480 237C478.9 238.2 477.8 239.5 476.6 240.7C476.407 241.04 476.336 241.436 476.4 241.822C476.464 242.208 476.66 242.56 476.954 242.819C477.248 243.077 477.622 243.227 478.013 243.241C478.404 243.256 478.788 243.136 479.1 242.9C480.3 241.7 481.4 240.5 482.5 239.2C482.694 238.86 482.765 238.464 482.701 238.078C482.636 237.692 482.441 237.34 482.147 237.081C481.853 236.823 481.479 236.673 481.088 236.659C480.697 236.644 480.313 236.764 480 237Z" fill="#7C86A6"/>
<path d="M473.6 244.6C473.158 244.649 472.75 244.861 472.455 245.193C472.159 245.525 471.997 245.955 472 246.4V246.6C472.049 247.042 472.261 247.45 472.593 247.745C472.925 248.041 473.355 248.203 473.8 248.2C474.233 248.15 474.63 247.935 474.91 247.6C475.189 247.265 475.329 246.835 475.3 246.4V246.2C475.3 245.981 475.256 245.765 475.169 245.564C475.083 245.363 474.956 245.182 474.797 245.032C474.637 244.882 474.449 244.766 474.243 244.692C474.037 244.618 473.818 244.586 473.6 244.6Z" fill="#7C86A6"/>
<path d="M470.901 250.7C470.875 250.267 470.685 249.86 470.369 249.562C470.053 249.265 469.635 249.099 469.201 249.1H469.101C468.738 249.153 468.4 249.315 468.132 249.565C467.864 249.816 467.678 250.142 467.601 250.5C467.544 250.664 467.524 250.838 467.541 251.011C467.558 251.184 467.613 251.35 467.701 251.5C467.81 251.833 468.026 252.122 468.315 252.32C468.604 252.519 468.95 252.617 469.301 252.6H469.401C469.843 252.551 470.251 252.339 470.546 252.007C470.842 251.675 471.004 251.245 471.001 250.8L470.901 250.7Z" fill="#7C86A6"/>
<path d="M403.6 196.8C406.1 196.8 409.9 296.2 409.9 298.9C409.9 301.6 396 313.7 395.2 312.8C394.4 311.9 387.4 217.8 387.4 215.3C387.4 212.8 401.9 196.8 403.6 196.8Z" fill="#F0F2FC"/>
<path d="M406.001 194.9C406.601 193.7 408.301 192.5 409.201 191.6L417.201 183.7L428.501 172.8L441.401 160.4L454.401 148L465.801 137.1L474.101 129.4C474.701 128.9 477.101 126.1 477.801 126.4C478.501 126.7 478.401 128.1 478.501 128.6C478.819 130.837 478.683 133.116 478.101 135.3C477.401 137.2 409.101 205.4 407.901 204.2C406.701 203 405.801 195.5 406.001 194.9Z" fill="#F0F2FC"/>
<path d="M464.999 194.8C463.899 164.1 462.999 162.1 462.499 161.6H462.399L461.799 161.2L461.299 161.6C460.899 161.9 415.999 205.5 413.799 210C411.599 214.5 415.999 246 418.699 263.1C419.599 268.7 420.299 272.6 420.699 273.2L421.099 273.7H421.599C421.999 273.7 422.999 273.7 443.999 252.1C446.099 249.9 464.699 230.5 465.499 228.6C466.299 226.7 465.099 196.1 464.999 194.8Z" fill="#F0F2FC"/>
<path d="M418.901 216.5C419.401 215.3 458.501 176.3 459.201 176.6C459.901 176.9 459.901 178.3 459.901 178.8C460.201 180.9 460.301 185.7 459.601 187.7C458.901 189.7 422.301 226.9 421.001 225.8C419.701 224.7 418.701 217.1 418.901 216.5Z" fill="#DDE0F0"/>
<path d="M487.701 268.2C488.601 265.2 492.901 260.4 499.301 259.3C505.701 258.2 514.201 259.2 517.601 261.7C521.001 264.2 519.601 270.6 511.201 271.5C502.801 272.4 486.701 271.1 487.701 268.2Z" fill="#4F4D63"/>
<path d="M490.5 265.5C490.3 265.5 490.2 265.4 490.1 265.2C490.042 265.157 489.995 265.099 489.967 265.032C489.939 264.965 489.929 264.892 489.94 264.82C489.95 264.748 489.98 264.68 490.026 264.624C490.071 264.567 490.132 264.525 490.2 264.5C490.3 264.4 493.7 262 496 261.5C497.109 261.208 498.254 261.073 499.4 261.1C499.475 261.089 499.551 261.1 499.62 261.131C499.689 261.162 499.747 261.211 499.789 261.274C499.831 261.337 499.854 261.41 499.856 261.485C499.858 261.561 499.839 261.635 499.8 261.7C499.776 261.841 499.703 261.969 499.593 262.061C499.483 262.153 499.344 262.202 499.2 262.2C498.192 262.169 497.183 262.27 496.2 262.5C494.262 263.183 492.441 264.162 490.8 265.4L490.5 265.5Z" fill="#382732"/>
<path d="M454.4 357.9V357.6L453.8 356.3C453.8 356.2 453.7 356.1 453.7 356L453.3 355.2L453 354.5L452.6 353.7L451.6 354.4H451.5L445.9 358.2L438.7 362.9L438 363.4H437.7L437.5 363.6L438.1 364.2H438.2L438.7 364.7C439.4 365.4 440.8 366.8 442.2 368H442.3L443.6 369.1C444.401 369.679 445.275 370.15 446.2 370.5L447.1 370.7C448.601 370.548 450.042 370.033 451.3 369.2C453.1 368.2 456.1 365.9 456.4 364.3C456.7 362.7 455.4 360.4 454.4 357.9ZM453.1 359.1C453.029 358.807 452.892 358.533 452.7 358.3L452.4 357.4L452.1 356.7L451.8 356.1L448.4 358.3H448.3L444.8 360.6L440.5 363.4L440 363.8H440.2L442.7 366.2L443.1 366.6L444.4 367.6C445.068 368.163 445.808 368.633 446.6 369C447.1 369.1 448.4 368.9 450.4 367.8C452.4 366.7 454.6 364.5 454.7 364C454.8 363.5 454.1 361.5 453.1 359.1Z" fill="#011C35"/>
<path d="M474.6 351.4L474.1 349.4C473.9 348.7 473.6 347.9 473.3 347.1C472.872 345.808 472.302 344.567 471.6 343.4C471.412 343.005 471.095 342.688 470.7 342.5H470.3L469.2 343C469.173 343 469.148 343.011 469.129 343.029C469.111 343.048 469.1 343.073 469.1 343.1C467.096 344.182 465.159 345.384 463.3 346.7L456.4 351.2L455.5 351.8L456.2 352.5L456.7 353L457.1 353.3L458 354.2L458.3 354.5L459.4 355.4C461.3 357 463.6 358.7 464.9 358.7H465C467.5 358.7 474.2 354.4 474.6 352V351.4ZM472.8 350.9C472.7 350.5 472.6 350 472.4 349.4L471.5 347C471.188 346.176 470.821 345.374 470.4 344.6C470.4 344.5 470.3 344.4 470.3 344.3H470.2C469.4 344.7 468 345.6 466.2 346.8L460.4 350.5L458.2 351.9C458.2 352 458.3 352.1 458.4 352.2L459.6 353.3C459.7 353.3 459.7 353.3 459.7 353.4L461.2 354.6C462.279 355.616 463.532 356.429 464.9 357H465C466.8 357 472.7 353 472.9 351.6C473.1 350.2 472.9 351.3 472.8 350.9Z" fill="#011C35"/>
<path d="M456.416 351.175L451.412 354.301L452.297 355.717L457.301 352.591L456.416 351.175Z" fill="#011C35"/>
<path d="M437.199 365.5C437.059 365.492 436.923 365.452 436.802 365.383C436.68 365.313 436.577 365.217 436.499 365.1C436.446 365.008 436.411 364.907 436.397 364.802C436.384 364.696 436.391 364.59 436.419 364.487C436.447 364.385 436.495 364.289 436.56 364.205C436.625 364.122 436.707 364.052 436.799 364L439.499 362.2C439.588 362.126 439.691 362.071 439.803 362.041C439.914 362.01 440.031 362.004 440.145 362.023C440.259 362.042 440.368 362.086 440.464 362.151C440.559 362.216 440.64 362.301 440.699 362.4C440.822 362.589 440.87 362.817 440.833 363.039C440.796 363.261 440.677 363.461 440.499 363.6L437.699 365.4L437.199 365.5Z" fill="#011C35"/>
<path d="M469.7 344.5C469.43 344.444 469.185 344.304 469 344.1C468.908 343.895 468.888 343.666 468.942 343.448C468.996 343.23 469.122 343.037 469.3 342.9L472.2 341.1C472.291 341.047 472.393 341.012 472.498 340.998C472.603 340.984 472.71 340.992 472.813 341.02C472.915 341.048 473.011 341.096 473.094 341.161C473.178 341.226 473.248 341.307 473.3 341.4C473.373 341.48 473.427 341.575 473.457 341.679C473.488 341.784 473.493 341.893 473.474 342C473.455 342.107 473.411 342.207 473.346 342.294C473.281 342.381 473.197 342.451 473.1 342.5L470.2 344.3L469.7 344.5Z" fill="#011C35"/>
<path d="M443.3 374.2C443.135 374.189 442.977 374.137 442.837 374.05C442.697 373.963 442.582 373.843 442.5 373.7C441.994 372.188 441.791 370.591 441.9 369C442.7 364.4 467.5 344.8 470.3 342.5C470.488 342.377 470.716 342.33 470.939 342.367C471.161 342.404 471.361 342.523 471.5 342.7C471.574 342.789 471.628 342.892 471.659 343.004C471.689 343.115 471.695 343.232 471.676 343.346C471.657 343.46 471.614 343.569 471.549 343.664C471.484 343.76 471.399 343.84 471.3 343.9C460.9 352.1 444.1 366.3 443.5 369.3C443.471 370.592 443.674 371.879 444.1 373.1C444.168 373.313 444.154 373.543 444.062 373.746C443.969 373.95 443.805 374.111 443.6 374.2H443.3Z" fill="#011C35"/>
<path d="M438.2 364.9C438.033 364.899 437.87 364.851 437.729 364.763C437.588 364.675 437.474 364.549 437.4 364.4C437.35 364.302 437.321 364.195 437.314 364.086C437.307 363.976 437.323 363.866 437.361 363.763C437.398 363.66 437.457 363.565 437.532 363.486C437.608 363.406 437.699 363.343 437.8 363.3C441 361.7 469.5 348 474.1 349.4C475.532 349.997 476.825 350.882 477.9 352C478.003 352.062 478.089 352.15 478.149 352.255C478.208 352.36 478.239 352.479 478.239 352.6C478.239 352.721 478.208 352.84 478.149 352.945C478.089 353.05 478.003 353.138 477.9 353.2C477.751 353.341 477.555 353.419 477.35 353.419C477.145 353.419 476.948 353.341 476.8 353.2C475.868 352.288 474.786 351.543 473.6 351C470.7 350.1 450.5 359 438.5 364.8L438.2 364.9Z" fill="#011C35"/>
<path d="M294.201 288.6C292.301 289.8 294.501 303 295.101 305.9C296.201 311.7 298.201 325.1 300.801 327.1C301.901 328 312.101 327.8 316.001 327.1C317.301 326.9 319.001 318.4 319.601 314.2C320.201 310 323.101 290.9 320.801 288.7C318.501 286.5 297.101 286.7 294.201 288.6Z" fill="#3BA1FF"/>
<path d="M328.601 297.5C327.201 295.3 324.801 294.2 321.601 294.1H321.401C317.901 294.1 315.001 297.9 314.201 303C314.115 303.864 314.082 304.732 314.101 305.6C314.149 308.317 314.417 311.026 314.901 313.7C315.158 315.15 315.492 316.585 315.901 318C315.989 318.389 316.204 318.737 316.512 318.99C316.819 319.244 317.202 319.388 317.601 319.4H318.101C318.356 319.362 318.597 319.259 318.801 319.1C318.901 319 319.001 318.8 319.201 318.7L320.801 317.4L321.301 317C323.087 315.494 324.759 313.856 326.301 312.1C327.26 310.921 328.097 309.648 328.801 308.3C329.396 307.095 329.833 305.817 330.101 304.5C330.101 304 330.201 303.5 330.201 303.1C330.26 301.113 329.701 299.156 328.601 297.5ZM325.501 299.5C324.801 298.4 323.501 297.8 321.501 297.8H321.401C320.001 297.8 318.501 299.9 318.001 303C317.797 303.851 317.696 304.724 317.701 305.6C317.782 308.496 318.151 311.377 318.801 314.2H318.901L319.701 313.5C321.041 312.31 322.31 311.041 323.501 309.7C324.973 308.064 325.975 306.06 326.401 303.9C326.477 303.64 326.511 303.37 326.501 303.1C326.559 301.824 326.209 300.563 325.501 299.5Z" fill="#3BA1FF"/>
<path d="M308.599 292.6H308.199C300.599 292.6 296.099 290.6 295.899 290.5C295.768 290.418 295.667 290.296 295.613 290.151C295.559 290.006 295.554 289.848 295.599 289.7C295.799 289.4 296.099 289.2 296.399 289.4C300.173 290.798 304.175 291.477 308.199 291.4C315.499 291.5 319.599 289.9 319.599 289.8C319.758 289.763 319.925 289.783 320.071 289.856C320.217 289.929 320.333 290.05 320.399 290.2C320.433 290.272 320.451 290.35 320.454 290.43C320.457 290.509 320.444 290.588 320.416 290.663C320.389 290.737 320.346 290.805 320.292 290.863C320.237 290.921 320.172 290.968 320.099 291C316.378 292.152 312.494 292.692 308.599 292.6Z" fill="#128DFF"/>
<path d="M554.9 320.4C555.1 320.3 550.8 312.8 547.4 310.9C544 309 539.3 308.7 534.9 308.7C530.5 308.7 526.8 307.5 525.1 308.9C523.4 310.3 526.9 312.4 529.6 313C532.3 313.6 535.3 313.9 536.5 315.1C537.7 316.3 540.5 321 540.8 321.4C542.285 322.196 543.864 322.8 545.5 323.2C547.274 323.574 549.09 323.708 550.9 323.6C552.5 323.5 554.9 320.3 554.9 320.4Z" fill="#A15A3C"/>
<path d="M632.6 317.4C632.5 316.9 632.5 316.4 632.4 315.9C632.116 314.184 631.447 312.554 630.443 311.133C629.438 309.713 628.124 308.539 626.6 307.7L623.5 306.3C620 305 596.8 308.4 577 311.7L570.2 312.8L557.6 314.9L552.2 315.9L549.9 316.2H549.4L544 317.1L544.6 321.2L544.8 322.9L546 332.3H548.8L571.4 333H581.7C588.9 333.2 596.3 333.7 603.6 334C607.2 334.1 610.8 334.2 614.3 334.1H616.5C620.4 333.8 624.5 333 627.6 330.5C629.373 328.839 630.745 326.797 631.611 324.527C632.478 322.257 632.816 319.82 632.6 317.4Z" fill="#A15A3C"/>
<path d="M503.099 324.4C503.699 322.7 507.899 321.1 509.399 320.5C514.299 318.7 523.799 318 524.699 317C525.599 316 521.399 315.4 517.599 314.2C514.799 315.2 510.599 318.9 508.899 316.8C507.199 314.7 512.299 311.2 515.099 310.1C520.099 308.2 533.999 312 539.999 313.1C544.971 314.379 549.822 316.085 554.499 318.2C554.599 318.3 551.399 331.2 549.099 332.4C546.799 333.6 544.599 333.9 540.399 333C531.099 331 529.099 331.1 526.699 331.5C524.299 331.9 515.999 333.7 514.299 333.4C512.599 333.1 512.199 332.1 513.199 330.8C514.199 329.5 516.699 329.3 517.899 328.9L520.499 328.2H518.799C515.899 328.4 512.799 329.2 509.899 329.3C506.999 329.4 504.699 329.3 505.699 326.4C503.699 326.9 502.799 325.2 503.099 324.4Z" fill="#A15A3C"/>
<path d="M506.6 325.1C511.142 323.375 515.942 322.428 520.8 322.3" stroke="#75422C" stroke-miterlimit="10" stroke-linecap="round"/>
<path d="M526.1 310.1C529.996 310.764 533.949 311.032 537.9 310.9" stroke="#75422C" stroke-miterlimit="10" stroke-linecap="round"/>
<path d="M707.701 233.6C706.501 262.7 666.301 316.4 656.101 326.8C645.901 337.2 571.901 338.7 571.901 338.7C571.901 338.7 569.601 310.9 570.301 308.9C571.001 306.9 578.801 307.5 586.601 305.2C594.401 302.9 623.601 296.3 623.601 296.3C623.601 296.3 671.001 210.5 677.801 201.9C686.801 190.7 708.801 204.4 707.701 233.6Z" fill="#0064C0"/>
<path d="M648.301 155.5C648.301 155.5 648.401 188.9 657.101 198.7C672.301 216 685.501 198.9 699.601 202C706.001 203.5 712.901 199.4 709.201 185.3C704.001 165.4 648.301 155.5 648.301 155.5Z" fill="#2E1911"/>
<path d="M650.3 149.3C646.2 147.9 641.7 148.1 637.7 146.3C633.7 144.5 630.2 141.4 626.8 138.5C626.3 138 625.4 138.8 626 139.3C631.5 144.2 636.7 148 644.1 149.2C651.5 150.4 659.7 154.8 662.9 163.2C662.911 163.289 662.943 163.375 662.992 163.451C663.041 163.526 663.106 163.59 663.183 163.637C663.26 163.683 663.346 163.712 663.436 163.721C663.525 163.73 663.616 163.719 663.7 163.688C663.785 163.657 663.861 163.608 663.924 163.544C663.987 163.479 664.035 163.401 664.064 163.316C664.092 163.231 664.102 163.14 664.091 163.051C664.08 162.961 664.049 162.876 664 162.8C662.85 159.681 661.026 156.853 658.658 154.52C656.29 152.186 653.436 150.404 650.3 149.3Z" fill="#1A0E09"/>
<path d="M681.3 179.7C675.8 177 674.7 169.5 672.1 164.4C667.6 155.6 660.9 148.1 651.9 144C651.2 143.7 650.6 144.7 651.3 145C660.5 149.2 667.1 157 671.5 165.9C673.5 169.9 674.4 175.1 677.5 178.4C680.6 181.7 688.3 181.5 690.2 187C690.196 187.095 690.213 187.189 690.252 187.276C690.291 187.362 690.349 187.438 690.423 187.498C690.497 187.557 690.584 187.598 690.677 187.618C690.77 187.637 690.866 187.634 690.957 187.609C691.049 187.584 691.133 187.538 691.203 187.474C691.273 187.41 691.328 187.331 691.361 187.242C691.394 187.153 691.406 187.058 691.396 186.964C691.385 186.87 691.353 186.779 691.3 186.7C689.8 182.1 685.1 181.6 681.3 179.7Z" fill="#1A0E09"/>
<path d="M674.6 302.4C684.5 293 697 275.1 707.7 258.9" stroke="#0054A1" stroke-miterlimit="10" stroke-linecap="round"/>
<path d="M668.801 221.2C673.263 219.172 678.17 218.316 683.055 218.714C687.941 219.112 692.645 220.75 696.72 223.474C700.796 226.198 704.108 229.917 706.345 234.278C708.582 238.64 709.668 243.501 709.501 248.4" stroke="#0054A1" stroke-miterlimit="10" stroke-linecap="round"/>
<path d="M616 247.6C619.114 251.316 621.49 255.593 623 260.2" stroke="#0054A1" stroke-miterlimit="10" stroke-linecap="round"/>
<path d="M576.699 309.7C577.696 317.801 579.402 325.798 581.799 333.6" stroke="#0054A1" stroke-miterlimit="10" stroke-linecap="round"/>
<path d="M625.5 295.5C630.176 296.994 634.382 299.682 637.7 303.3" stroke="#0054A1" stroke-miterlimit="10" stroke-linecap="round"/>
<path d="M652.801 213.7C656.322 212.192 659.928 210.89 663.601 209.8" stroke="#75422C" stroke-miterlimit="10" stroke-linecap="round"/>
<path d="M460.399 110.1L461.799 135.1C462.499 146.6 449.799 166.4 445.999 171.9C445.517 172.738 444.782 173.403 443.899 173.8C441.507 174.554 439.068 175.155 436.599 175.6C429.899 176.6 421.399 176 420.099 167.5L415.999 139.5C415.944 138.6 416.095 137.7 416.442 136.868C416.789 136.036 417.322 135.294 417.999 134.7C425.35 128.063 431.685 120.381 436.799 111.9C437.899 109.9 439.599 108.9 440.899 109.3C444.404 110.316 448.083 110.588 451.699 110.1C454.028 109.819 456.313 109.248 458.499 108.4C459.499 108 460.299 108.7 460.399 110.1Z" fill="#FF7F00"/>
<path d="M451.999 113.4C453.599 135.3 447.299 159 436.599 175.6C429.899 176.6 421.399 176 420.099 167.5L415.999 139.5C415.944 138.6 416.095 137.7 416.442 136.868C416.789 136.036 417.322 135.294 417.999 134.7C425.35 128.063 431.685 120.381 436.799 111.9C437.899 109.9 439.599 108.9 440.899 109.3C444.404 110.316 448.083 110.588 451.699 110.1L451.999 113.4Z" fill="#FF9E19"/>
<path d="M460.399 110.1C460.299 108.7 459.499 108 458.499 108.4C454.299 110.1 446.699 111.2 440.899 109.3C439.599 108.9 437.899 109.9 436.799 111.9C431.685 120.381 425.35 128.063 417.999 134.7C417.322 135.294 416.789 136.036 416.442 136.868C416.095 137.7 415.944 138.6 415.999 139.5L420.099 167.5C421.999 180.2 439.499 175.2 443.899 173.8C444.782 173.403 445.517 172.738 445.999 171.9C449.799 166.4 462.499 146.6 461.899 135.1L460.399 110.1Z" stroke="#FF7F00" stroke-width="4.73" stroke-linecap="round" stroke-linejoin="round"/>
<path d="M454.9 133.7C455.5 142.3 450.6 153.4 443.6 159.2C436.6 165 428.9 163.2 427.7 154.1C426.5 145 432.4 131.9 440.4 126.5C448.4 121.1 454.3 124.8 454.9 133.7Z" fill="white"/>
<path d="M433.1 150L440.7 152.6L452.5 126.3" stroke="#011C35" stroke-width="4.73" stroke-linecap="round" stroke-linejoin="round"/>
</g>
<defs>
<clipPath id="clip0_304_4344">
<rect width="755.1" height="549.2" fill="white"/>
</clipPath>
</defs>
</svg>
